<mxfile host="app.diagrams.net" modified="2023-09-11T11:28:34.051Z" agent="Mozilla/5.0 (Macintosh; Intel Mac OS X 10.15; rv:109.0) Gecko/20100101 Firefox/117.0" etag="Bdek7VwFiHe_ZkJR4fgH" version="21.7.4" type="github">
  <diagram name="Page-1" id="64c3da0e-402f-94eb-ee01-a36477274f13">
    <mxGraphModel dx="2809" dy="940" grid="1" gridSize="10" guides="1" tooltips="1" connect="1" arrows="1" fold="1" page="1" pageScale="1" pageWidth="1169" pageHeight="826" background="none" math="0" shadow="0">
      <root>
        <mxCell id="0" />
        <mxCell id="1" parent="0" />
        <mxCell id="2" value="MAIN PROJECT" style="whiteSpace=wrap;rounded=1;shadow=1;fontStyle=1;fontSize=24;labelBackgroundColor=none;strokeWidth=2;fillColor=#f8cecc;strokeColor=#b85450;" parent="1" vertex="1">
          <mxGeometry x="1000" y="50" width="340" height="60" as="geometry" />
        </mxCell>
        <mxCell id="3" value="Member interface" style="whiteSpace=wrap;rounded=1;strokeColor=#9673a6;shadow=1;fontStyle=1;fontSize=14;labelBackgroundColor=none;fillColor=#e1d5e7;" parent="1" vertex="1">
          <mxGeometry x="-240" y="169.9999999999998" width="140" height="60" as="geometry" />
        </mxCell>
        <mxCell id="4" value="Librarian interface" style="whiteSpace=wrap;rounded=1;strokeColor=#9673a6;shadow=1;fontStyle=1;fontSize=14;labelBackgroundColor=none;fillColor=#e1d5e7;" parent="1" vertex="1">
          <mxGeometry x="250" y="169.9999999999998" width="140" height="60" as="geometry" />
        </mxCell>
        <mxCell id="5" value="SUB-PROJECT 6" style="whiteSpace=wrap;rounded=1;strokeColor=#9673a6;shadow=1;fontStyle=1;fontSize=14;labelBackgroundColor=none;fillColor=#e1d5e7;" parent="1" vertex="1">
          <mxGeometry x="2220" y="169.9999999999998" width="140" height="60" as="geometry" />
        </mxCell>
        <mxCell id="6" value="Account Registratiion" style="whiteSpace=wrap;rounded=1;strokeColor=#9673a6;shadow=1;fontStyle=1;fontSize=14;labelBackgroundColor=none;fillColor=#e1d5e7;" parent="1" vertex="1">
          <mxGeometry x="800" y="169.9999999999998" width="140" height="60" as="geometry" />
        </mxCell>
        <mxCell id="7" value="STUFF" style="whiteSpace=wrap;rounded=1;strokeColor=#9673a6;shadow=1;fontStyle=1;fontSize=14;labelBackgroundColor=none;fillColor=#e1d5e7;" parent="1" vertex="1">
          <mxGeometry x="1270" y="169.9999999999998" width="140" height="60" as="geometry" />
        </mxCell>
        <mxCell id="8" value="Database" style="whiteSpace=wrap;rounded=1;strokeColor=#9673a6;shadow=1;fontStyle=1;fontSize=14;labelBackgroundColor=none;fillColor=#e1d5e7;" parent="1" vertex="1">
          <mxGeometry x="1740" y="169.9999999999998" width="140" height="60" as="geometry" />
        </mxCell>
        <mxCell id="10" value="Manage Account" style="whiteSpace=wrap;rounded=1;strokeColor=#6c8ebf;shadow=1;labelBackgroundColor=none;fillStyle=auto;fillColor=#dae8fc;perimeterSpacing=0;" parent="1" vertex="1">
          <mxGeometry x="-330" y="300.0000000000001" width="120" height="60" as="geometry" />
        </mxCell>
        <mxCell id="12" value="Manage books" style="whiteSpace=wrap;rounded=1;strokeColor=#6c8ebf;shadow=1;labelBackgroundColor=none;fillStyle=auto;fillColor=#dae8fc;perimeterSpacing=0;" parent="1" vertex="1">
          <mxGeometry x="-130" y="300.0000000000001" width="120" height="60" as="geometry" />
        </mxCell>
        <mxCell id="23" value="WORK&#xa;PACKAGE 1" style="whiteSpace=wrap;rounded=1;strokeColor=default;shadow=1;fontStyle=0;labelBackgroundColor=none;fillColor=default;perimeterSpacing=0;" parent="1" vertex="1">
          <mxGeometry x="-330.00000000000006" y="400.0000000000001" width="120" height="60" as="geometry" />
        </mxCell>
        <mxCell id="24" value="WORK&#xa;PACKAGE 2" style="whiteSpace=wrap;rounded=1;strokeColor=default;shadow=1;fontStyle=0;labelBackgroundColor=none;fillColor=default;perimeterSpacing=0;" parent="1" vertex="1">
          <mxGeometry x="-329.9999999999999" y="480.0000000000001" width="120" height="60" as="geometry" />
        </mxCell>
        <mxCell id="25" value="WORK&#xa;PACKAGE 3" style="whiteSpace=wrap;rounded=1;strokeColor=default;shadow=1;fontStyle=0;labelBackgroundColor=none;fillColor=default;perimeterSpacing=0;" parent="1" vertex="1">
          <mxGeometry x="-329.99999999999994" y="560.0000000000001" width="120" height="60" as="geometry" />
        </mxCell>
        <mxCell id="26" value="WORK&#xa;PACKAGE 4" style="whiteSpace=wrap;rounded=1;strokeColor=default;shadow=1;fontStyle=0;labelBackgroundColor=none;fillColor=default;perimeterSpacing=0;" parent="1" vertex="1">
          <mxGeometry x="-329.9999999999998" y="640.0000000000001" width="120" height="60" as="geometry" />
        </mxCell>
        <mxCell id="27" value="WORK&#xa;PACKAGE 5" style="whiteSpace=wrap;rounded=1;strokeColor=default;shadow=1;fontStyle=0;labelBackgroundColor=none;fillColor=default;perimeterSpacing=0;" parent="1" vertex="1">
          <mxGeometry x="-329.99999999999966" y="720.0000000000001" width="120" height="60" as="geometry" />
        </mxCell>
        <mxCell id="38" value="WORK&#xa;PACKAGE 1" style="whiteSpace=wrap;rounded=1;strokeColor=default;shadow=1;fontStyle=0;labelBackgroundColor=none;fillColor=default;perimeterSpacing=0;" parent="1" vertex="1">
          <mxGeometry x="-130.0000000000004" y="400.0000000000001" width="120" height="60" as="geometry" />
        </mxCell>
        <mxCell id="39" value="WORK&#xa;PACKAGE 2" style="whiteSpace=wrap;rounded=1;strokeColor=default;shadow=1;fontStyle=0;labelBackgroundColor=none;fillColor=default;perimeterSpacing=0;" parent="1" vertex="1">
          <mxGeometry x="-130.00000000000023" y="480.0000000000001" width="120" height="60" as="geometry" />
        </mxCell>
        <mxCell id="40" value="WORK&#xa;PACKAGE 3" style="whiteSpace=wrap;rounded=1;strokeColor=default;shadow=1;fontStyle=0;labelBackgroundColor=none;fillColor=default;perimeterSpacing=0;" parent="1" vertex="1">
          <mxGeometry x="-130.00000000000028" y="560.0000000000001" width="120" height="60" as="geometry" />
        </mxCell>
        <mxCell id="41" value="WORK&#xa;PACKAGE 4" style="whiteSpace=wrap;rounded=1;strokeColor=default;shadow=1;fontStyle=0;labelBackgroundColor=none;fillColor=default;perimeterSpacing=0;" parent="1" vertex="1">
          <mxGeometry x="-130.0000000000001" y="640.0000000000001" width="120" height="60" as="geometry" />
        </mxCell>
        <mxCell id="42" value="WORK&#xa;PACKAGE 5" style="whiteSpace=wrap;rounded=1;strokeColor=default;shadow=1;fontStyle=0;labelBackgroundColor=none;fillColor=default;perimeterSpacing=0;" parent="1" vertex="1">
          <mxGeometry x="-130" y="720.0000000000001" width="120" height="60" as="geometry" />
        </mxCell>
        <mxCell id="43" value="SUB-TASK 1" style="whiteSpace=wrap;rounded=1;strokeColor=#6c8ebf;shadow=1;labelBackgroundColor=none;fillStyle=auto;fillColor=#dae8fc;perimeterSpacing=0;" parent="1" vertex="1">
          <mxGeometry x="119.99999999999977" y="300.0000000000001" width="120" height="60" as="geometry" />
        </mxCell>
        <mxCell id="44" value="SUB-TASK 2" style="whiteSpace=wrap;rounded=1;strokeColor=#6c8ebf;shadow=1;labelBackgroundColor=none;fillStyle=auto;fillColor=#dae8fc;perimeterSpacing=0;" parent="1" vertex="1">
          <mxGeometry x="379.9999999999998" y="300.0000000000001" width="120" height="60" as="geometry" />
        </mxCell>
        <mxCell id="45" value="WORK&#xa;PACKAGE 1" style="whiteSpace=wrap;rounded=1;strokeColor=default;shadow=1;fontStyle=0;labelBackgroundColor=none;fillColor=default;perimeterSpacing=0;" parent="1" vertex="1">
          <mxGeometry x="119.99999999999972" y="400.0000000000001" width="120" height="60" as="geometry" />
        </mxCell>
        <mxCell id="46" value="WORK&#xa;PACKAGE 2" style="whiteSpace=wrap;rounded=1;strokeColor=default;shadow=1;fontStyle=0;labelBackgroundColor=none;fillColor=default;perimeterSpacing=0;" parent="1" vertex="1">
          <mxGeometry x="119.99999999999989" y="480.0000000000001" width="120" height="60" as="geometry" />
        </mxCell>
        <mxCell id="47" value="WORK&#xa;PACKAGE 3" style="whiteSpace=wrap;rounded=1;strokeColor=default;shadow=1;fontStyle=0;labelBackgroundColor=none;fillColor=default;perimeterSpacing=0;" parent="1" vertex="1">
          <mxGeometry x="119.99999999999983" y="560.0000000000001" width="120" height="60" as="geometry" />
        </mxCell>
        <mxCell id="48" value="WORK&#xa;PACKAGE 4" style="whiteSpace=wrap;rounded=1;strokeColor=default;shadow=1;fontStyle=0;labelBackgroundColor=none;fillColor=default;perimeterSpacing=0;" parent="1" vertex="1">
          <mxGeometry x="120" y="640.0000000000001" width="120" height="60" as="geometry" />
        </mxCell>
        <mxCell id="49" value="WORK&#xa;PACKAGE 5" style="whiteSpace=wrap;rounded=1;strokeColor=default;shadow=1;fontStyle=0;labelBackgroundColor=none;fillColor=default;perimeterSpacing=0;" parent="1" vertex="1">
          <mxGeometry x="120.00000000000011" y="720.0000000000001" width="120" height="60" as="geometry" />
        </mxCell>
        <mxCell id="50" value="WORK&#xa;PACKAGE 1" style="whiteSpace=wrap;rounded=1;strokeColor=default;shadow=1;fontStyle=0;labelBackgroundColor=none;fillColor=default;perimeterSpacing=0;" parent="1" vertex="1">
          <mxGeometry x="379.9999999999993" y="400.0000000000001" width="120" height="60" as="geometry" />
        </mxCell>
        <mxCell id="51" value="WORK&#xa;PACKAGE 2" style="whiteSpace=wrap;rounded=1;strokeColor=default;shadow=1;fontStyle=0;labelBackgroundColor=none;fillColor=default;perimeterSpacing=0;" parent="1" vertex="1">
          <mxGeometry x="379.99999999999955" y="480.0000000000001" width="120" height="60" as="geometry" />
        </mxCell>
        <mxCell id="52" value="WORK&#xa;PACKAGE 3" style="whiteSpace=wrap;rounded=1;strokeColor=default;shadow=1;fontStyle=0;labelBackgroundColor=none;fillColor=default;perimeterSpacing=0;" parent="1" vertex="1">
          <mxGeometry x="379.99999999999955" y="560.0000000000001" width="120" height="60" as="geometry" />
        </mxCell>
        <mxCell id="53" value="WORK&#xa;PACKAGE 4" style="whiteSpace=wrap;rounded=1;strokeColor=default;shadow=1;fontStyle=0;labelBackgroundColor=none;fillColor=default;perimeterSpacing=0;" parent="1" vertex="1">
          <mxGeometry x="379.99999999999966" y="640.0000000000001" width="120" height="60" as="geometry" />
        </mxCell>
        <mxCell id="54" value="WORK&#xa;PACKAGE 5" style="whiteSpace=wrap;rounded=1;strokeColor=default;shadow=1;fontStyle=0;labelBackgroundColor=none;fillColor=default;perimeterSpacing=0;" parent="1" vertex="1">
          <mxGeometry x="379.9999999999998" y="720.0000000000001" width="120" height="60" as="geometry" />
        </mxCell>
        <mxCell id="103" value="" style="edgeStyle=elbowEdgeStyle;elbow=vertical;rounded=0;fontColor=default;endArrow=none;endFill=0;strokeWidth=8;labelBackgroundColor=none;" parent="1" source="3" target="10" edge="1">
          <mxGeometry width="100" height="100" relative="1" as="geometry">
            <mxPoint x="-380" y="290" as="sourcePoint" />
            <mxPoint x="-280" y="190" as="targetPoint" />
          </mxGeometry>
        </mxCell>
        <mxCell id="104" value="" style="edgeStyle=elbowEdgeStyle;elbow=vertical;rounded=0;fontColor=default;endArrow=none;endFill=0;strokeWidth=8;labelBackgroundColor=none;" parent="1" source="3" target="12" edge="1">
          <mxGeometry width="100" height="100" relative="1" as="geometry">
            <mxPoint x="-40" y="290" as="sourcePoint" />
            <mxPoint x="60" y="190" as="targetPoint" />
          </mxGeometry>
        </mxCell>
        <mxCell id="105" value="" style="edgeStyle=elbowEdgeStyle;elbow=horizontal;rounded=0;fontColor=default;endArrow=none;endFill=0;strokeWidth=8;labelBackgroundColor=none;" parent="1" source="10" target="23" edge="1">
          <mxGeometry width="100" height="100" relative="1" as="geometry">
            <mxPoint x="-390" y="480" as="sourcePoint" />
            <mxPoint x="-290" y="380" as="targetPoint" />
            <Array as="points">
              <mxPoint x="-350" y="380" />
            </Array>
          </mxGeometry>
        </mxCell>
        <mxCell id="106" value="" style="edgeStyle=elbowEdgeStyle;elbow=horizontal;rounded=0;fontColor=default;endArrow=none;endFill=0;strokeWidth=8;labelBackgroundColor=none;" parent="1" source="10" target="24" edge="1">
          <mxGeometry width="100" height="100" relative="1" as="geometry">
            <mxPoint x="-320" y="340" as="sourcePoint" />
            <mxPoint x="-320" y="440" as="targetPoint" />
            <Array as="points">
              <mxPoint x="-350" y="400" />
            </Array>
          </mxGeometry>
        </mxCell>
        <mxCell id="107" value="" style="edgeStyle=elbowEdgeStyle;elbow=horizontal;rounded=0;fontColor=default;endArrow=none;endFill=0;strokeWidth=8;labelBackgroundColor=none;" parent="1" source="10" target="27" edge="1">
          <mxGeometry width="100" height="100" relative="1" as="geometry">
            <mxPoint x="-320" y="340" as="sourcePoint" />
            <mxPoint x="-320" y="440" as="targetPoint" />
            <Array as="points">
              <mxPoint x="-350" y="540" />
            </Array>
          </mxGeometry>
        </mxCell>
        <mxCell id="109" value="" style="edgeStyle=elbowEdgeStyle;elbow=horizontal;rounded=0;fontColor=default;endArrow=none;endFill=0;strokeWidth=8;labelBackgroundColor=none;" parent="1" source="10" target="26" edge="1">
          <mxGeometry width="100" height="100" relative="1" as="geometry">
            <mxPoint x="-300" y="360" as="sourcePoint" />
            <mxPoint x="-300" y="460" as="targetPoint" />
            <Array as="points">
              <mxPoint x="-350" y="410" />
            </Array>
          </mxGeometry>
        </mxCell>
        <mxCell id="110" value="" style="edgeStyle=elbowEdgeStyle;elbow=horizontal;rounded=0;fontColor=default;endArrow=none;endFill=0;strokeWidth=8;labelBackgroundColor=none;" parent="1" source="10" target="25" edge="1">
          <mxGeometry width="100" height="100" relative="1" as="geometry">
            <mxPoint x="-290" y="370" as="sourcePoint" />
            <mxPoint x="-290" y="470" as="targetPoint" />
            <Array as="points">
              <mxPoint x="-350" y="430" />
            </Array>
          </mxGeometry>
        </mxCell>
        <mxCell id="111" value="" style="edgeStyle=elbowEdgeStyle;elbow=horizontal;rounded=0;fontColor=default;endArrow=none;endFill=0;strokeWidth=8;labelBackgroundColor=none;" parent="1" target="38" edge="1">
          <mxGeometry width="100" height="100" relative="1" as="geometry">
            <mxPoint x="-140" y="330.0000000000004" as="sourcePoint" />
            <mxPoint x="-140" y="430.0000000000004" as="targetPoint" />
            <Array as="points">
              <mxPoint x="-150" y="380" />
            </Array>
          </mxGeometry>
        </mxCell>
        <mxCell id="112" value="" style="edgeStyle=elbowEdgeStyle;elbow=horizontal;rounded=0;fontColor=default;endArrow=none;endFill=0;strokeWidth=8;labelBackgroundColor=none;" parent="1" source="12" target="39" edge="1">
          <mxGeometry width="100" height="100" relative="1" as="geometry">
            <mxPoint x="-140" y="330.0000000000004" as="sourcePoint" />
            <mxPoint x="-140" y="510.0000000000004" as="targetPoint" />
            <Array as="points">
              <mxPoint x="-150" y="420" />
            </Array>
          </mxGeometry>
        </mxCell>
        <mxCell id="113" value="" style="edgeStyle=elbowEdgeStyle;elbow=horizontal;rounded=0;fontColor=default;endArrow=none;endFill=0;strokeWidth=8;labelBackgroundColor=none;" parent="1" source="12" target="42" edge="1">
          <mxGeometry width="100" height="100" relative="1" as="geometry">
            <mxPoint x="-140" y="330.0000000000004" as="sourcePoint" />
            <mxPoint x="-139.99999999999955" y="750.0000000000003" as="targetPoint" />
            <Array as="points">
              <mxPoint x="-150" y="540" />
            </Array>
          </mxGeometry>
        </mxCell>
        <mxCell id="114" value="" style="edgeStyle=elbowEdgeStyle;elbow=horizontal;rounded=0;fontColor=default;endArrow=none;endFill=0;strokeWidth=8;labelBackgroundColor=none;" parent="1" source="12" target="41" edge="1">
          <mxGeometry width="100" height="100" relative="1" as="geometry">
            <mxPoint x="-140" y="330.0000000000004" as="sourcePoint" />
            <mxPoint x="-139.99999999999977" y="670.0000000000003" as="targetPoint" />
            <Array as="points">
              <mxPoint x="-150" y="500" />
            </Array>
          </mxGeometry>
        </mxCell>
        <mxCell id="115" value="" style="edgeStyle=elbowEdgeStyle;elbow=horizontal;rounded=0;fontColor=default;endArrow=none;endFill=0;strokeWidth=8;labelBackgroundColor=none;" parent="1" source="12" target="40" edge="1">
          <mxGeometry width="100" height="100" relative="1" as="geometry">
            <mxPoint x="-140" y="330.0000000000004" as="sourcePoint" />
            <mxPoint x="-140" y="590.0000000000003" as="targetPoint" />
            <Array as="points">
              <mxPoint x="-150" y="460" />
            </Array>
          </mxGeometry>
        </mxCell>
        <mxCell id="116" value="" style="edgeStyle=elbowEdgeStyle;elbow=vertical;rounded=0;fontColor=default;endArrow=none;endFill=0;strokeWidth=8;labelBackgroundColor=none;" parent="1" source="4" target="43" edge="1">
          <mxGeometry width="100" height="100" relative="1" as="geometry">
            <mxPoint x="-40" y="239.99999999999977" as="sourcePoint" />
            <mxPoint x="-140" y="310" as="targetPoint" />
          </mxGeometry>
        </mxCell>
        <mxCell id="117" value="" style="edgeStyle=elbowEdgeStyle;elbow=vertical;rounded=0;fontColor=default;endArrow=none;endFill=0;strokeWidth=8;labelBackgroundColor=none;" parent="1" source="4" target="44" edge="1">
          <mxGeometry width="100" height="100" relative="1" as="geometry">
            <mxPoint x="-40" y="239.99999999999977" as="sourcePoint" />
            <mxPoint x="60" y="310" as="targetPoint" />
          </mxGeometry>
        </mxCell>
        <mxCell id="118" value="" style="edgeStyle=elbowEdgeStyle;elbow=horizontal;rounded=0;fontColor=default;endArrow=none;endFill=0;strokeWidth=8;labelBackgroundColor=none;" parent="1" source="43" target="45" edge="1">
          <mxGeometry width="100" height="100" relative="1" as="geometry">
            <mxPoint x="100" y="330.00000000000045" as="sourcePoint" />
            <mxPoint x="109.99999999999955" y="430" as="targetPoint" />
            <Array as="points">
              <mxPoint x="100" y="380" />
            </Array>
          </mxGeometry>
        </mxCell>
        <mxCell id="119" value="" style="edgeStyle=elbowEdgeStyle;elbow=horizontal;rounded=0;fontColor=default;endArrow=none;endFill=0;strokeWidth=8;labelBackgroundColor=none;" parent="1" source="43" target="46" edge="1">
          <mxGeometry width="100" height="100" relative="1" as="geometry">
            <mxPoint x="110" y="330" as="sourcePoint" />
            <mxPoint x="109.99999999999977" y="510" as="targetPoint" />
            <Array as="points">
              <mxPoint x="100" y="420" />
            </Array>
          </mxGeometry>
        </mxCell>
        <mxCell id="120" value="" style="edgeStyle=elbowEdgeStyle;elbow=horizontal;rounded=0;fontColor=default;endArrow=none;endFill=0;strokeWidth=8;labelBackgroundColor=none;" parent="1" source="43" target="49" edge="1">
          <mxGeometry width="100" height="100" relative="1" as="geometry">
            <mxPoint x="110" y="330" as="sourcePoint" />
            <mxPoint x="110" y="750" as="targetPoint" />
            <Array as="points">
              <mxPoint x="100" y="550" />
            </Array>
          </mxGeometry>
        </mxCell>
        <mxCell id="121" value="" style="edgeStyle=elbowEdgeStyle;elbow=horizontal;rounded=0;fontColor=default;endArrow=none;endFill=0;strokeWidth=8;labelBackgroundColor=none;" parent="1" source="43" target="48" edge="1">
          <mxGeometry width="100" height="100" relative="1" as="geometry">
            <mxPoint x="110" y="330" as="sourcePoint" />
            <mxPoint x="110" y="670" as="targetPoint" />
            <Array as="points">
              <mxPoint x="100" y="500" />
            </Array>
          </mxGeometry>
        </mxCell>
        <mxCell id="122" value="" style="edgeStyle=elbowEdgeStyle;elbow=horizontal;rounded=0;fontColor=default;endArrow=none;endFill=0;strokeWidth=8;labelBackgroundColor=none;" parent="1" source="43" target="47" edge="1">
          <mxGeometry width="100" height="100" relative="1" as="geometry">
            <mxPoint x="110" y="330" as="sourcePoint" />
            <mxPoint x="109.99999999999977" y="590" as="targetPoint" />
            <Array as="points">
              <mxPoint x="100" y="470" />
            </Array>
          </mxGeometry>
        </mxCell>
        <mxCell id="123" value="" style="edgeStyle=elbowEdgeStyle;elbow=horizontal;rounded=0;fontColor=default;endArrow=none;endFill=0;strokeWidth=8;labelBackgroundColor=none;" parent="1" source="44" target="50" edge="1">
          <mxGeometry width="100" height="100" relative="1" as="geometry">
            <mxPoint x="350" y="330.00000000000045" as="sourcePoint" />
            <mxPoint x="359.99999999999955" y="430" as="targetPoint" />
            <Array as="points">
              <mxPoint x="360" y="380" />
            </Array>
          </mxGeometry>
        </mxCell>
        <mxCell id="124" value="" style="edgeStyle=elbowEdgeStyle;elbow=horizontal;rounded=0;fontColor=default;endArrow=none;endFill=0;strokeWidth=8;labelBackgroundColor=none;" parent="1" source="44" target="51" edge="1">
          <mxGeometry width="100" height="100" relative="1" as="geometry">
            <mxPoint x="360" y="330" as="sourcePoint" />
            <mxPoint x="359.9999999999998" y="510" as="targetPoint" />
            <Array as="points">
              <mxPoint x="360" y="420" />
            </Array>
          </mxGeometry>
        </mxCell>
        <mxCell id="125" value="" style="edgeStyle=elbowEdgeStyle;elbow=horizontal;rounded=0;fontColor=default;endArrow=none;endFill=0;strokeWidth=8;labelBackgroundColor=none;" parent="1" source="44" target="54" edge="1">
          <mxGeometry width="100" height="100" relative="1" as="geometry">
            <mxPoint x="360" y="330" as="sourcePoint" />
            <mxPoint x="360" y="750" as="targetPoint" />
            <Array as="points">
              <mxPoint x="360" y="540" />
            </Array>
          </mxGeometry>
        </mxCell>
        <mxCell id="126" value="" style="edgeStyle=elbowEdgeStyle;elbow=horizontal;rounded=0;fontColor=default;endArrow=none;endFill=0;strokeWidth=8;labelBackgroundColor=none;" parent="1" source="44" target="53" edge="1">
          <mxGeometry width="100" height="100" relative="1" as="geometry">
            <mxPoint x="360" y="330" as="sourcePoint" />
            <mxPoint x="360" y="670" as="targetPoint" />
            <Array as="points">
              <mxPoint x="360" y="500" />
            </Array>
          </mxGeometry>
        </mxCell>
        <mxCell id="127" value="" style="edgeStyle=elbowEdgeStyle;elbow=horizontal;rounded=0;fontColor=default;endArrow=none;endFill=0;strokeWidth=8;labelBackgroundColor=none;" parent="1" source="44" target="52" edge="1">
          <mxGeometry width="100" height="100" relative="1" as="geometry">
            <mxPoint x="360" y="330" as="sourcePoint" />
            <mxPoint x="359.9999999999998" y="590" as="targetPoint" />
            <Array as="points">
              <mxPoint x="360" y="470" />
            </Array>
          </mxGeometry>
        </mxCell>
        <mxCell id="133" value="Librarian account registration" style="whiteSpace=wrap;rounded=1;strokeColor=#6c8ebf;shadow=1;labelBackgroundColor=none;fillStyle=auto;fillColor=#dae8fc;perimeterSpacing=0;" parent="1" vertex="1">
          <mxGeometry x="809.9999999999998" y="300.0000000000001" width="120" height="60" as="geometry" />
        </mxCell>
        <mxCell id="134" value="Common tools" style="whiteSpace=wrap;rounded=1;strokeColor=#6c8ebf;shadow=1;labelBackgroundColor=none;fillStyle=auto;fillColor=#dae8fc;perimeterSpacing=0;" parent="1" vertex="1">
          <mxGeometry x="1009.9999999999998" y="300.0000000000001" width="120" height="60" as="geometry" />
        </mxCell>
        <mxCell id="135" value="Registration Page" style="whiteSpace=wrap;rounded=1;shadow=1;fontStyle=0;labelBackgroundColor=none;perimeterSpacing=0;" parent="1" vertex="1">
          <mxGeometry x="809.9999999999998" y="400.0000000000001" width="120" height="60" as="geometry" />
        </mxCell>
        <mxCell id="136" value="Librarian+ allow user onto system" style="whiteSpace=wrap;rounded=1;strokeColor=default;shadow=1;fontStyle=0;labelBackgroundColor=none;fillColor=default;perimeterSpacing=0;" parent="1" vertex="1">
          <mxGeometry x="809.9999999999999" y="480.0000000000001" width="120" height="60" as="geometry" />
        </mxCell>
        <mxCell id="137" value="WORK&#xa;PACKAGE 3" style="whiteSpace=wrap;rounded=1;strokeColor=default;shadow=1;fontStyle=0;labelBackgroundColor=none;fillColor=default;perimeterSpacing=0;" parent="1" vertex="1">
          <mxGeometry x="809.9999999999998" y="560.0000000000001" width="120" height="60" as="geometry" />
        </mxCell>
        <mxCell id="138" value="WORK&#xa;PACKAGE 4" style="whiteSpace=wrap;rounded=1;strokeColor=default;shadow=1;fontStyle=0;labelBackgroundColor=none;fillColor=default;perimeterSpacing=0;" parent="1" vertex="1">
          <mxGeometry x="810" y="640.0000000000001" width="120" height="60" as="geometry" />
        </mxCell>
        <mxCell id="139" value="WORK&#xa;PACKAGE 5" style="whiteSpace=wrap;rounded=1;strokeColor=default;shadow=1;fontStyle=0;labelBackgroundColor=none;fillColor=default;perimeterSpacing=0;" parent="1" vertex="1">
          <mxGeometry x="810.0000000000001" y="720.0000000000001" width="120" height="60" as="geometry" />
        </mxCell>
        <mxCell id="140" value="Email confirmation module" style="whiteSpace=wrap;rounded=1;shadow=1;fontStyle=0;labelBackgroundColor=none;perimeterSpacing=0;" parent="1" vertex="1">
          <mxGeometry x="1009.9999999999993" y="400.0000000000001" width="120" height="60" as="geometry" />
        </mxCell>
        <mxCell id="141" value="Input Validation" style="whiteSpace=wrap;rounded=1;shadow=1;fontStyle=0;labelBackgroundColor=none;perimeterSpacing=0;" parent="1" vertex="1">
          <mxGeometry x="1009.9999999999995" y="480.0000000000001" width="120" height="60" as="geometry" />
        </mxCell>
        <mxCell id="142" value="Back-end input validation" style="whiteSpace=wrap;rounded=1;shadow=1;fontStyle=0;labelBackgroundColor=none;perimeterSpacing=0;" parent="1" vertex="1">
          <mxGeometry x="1009.9999999999995" y="560.0000000000001" width="120" height="60" as="geometry" />
        </mxCell>
        <mxCell id="145" value="" style="edgeStyle=elbowEdgeStyle;elbow=horizontal;rounded=0;fontColor=default;endArrow=none;endFill=0;strokeWidth=8;labelBackgroundColor=none;" parent="1" source="133" target="135" edge="1">
          <mxGeometry width="100" height="100" relative="1" as="geometry">
            <mxPoint x="790" y="330.00000000000045" as="sourcePoint" />
            <mxPoint x="799.9999999999995" y="430" as="targetPoint" />
            <Array as="points">
              <mxPoint x="790" y="380" />
            </Array>
          </mxGeometry>
        </mxCell>
        <mxCell id="146" value="" style="edgeStyle=elbowEdgeStyle;elbow=horizontal;rounded=0;fontColor=default;endArrow=none;endFill=0;strokeWidth=8;labelBackgroundColor=none;" parent="1" source="133" target="136" edge="1">
          <mxGeometry width="100" height="100" relative="1" as="geometry">
            <mxPoint x="800" y="330" as="sourcePoint" />
            <mxPoint x="799.9999999999998" y="510" as="targetPoint" />
            <Array as="points">
              <mxPoint x="790" y="420" />
            </Array>
          </mxGeometry>
        </mxCell>
        <mxCell id="147" value="" style="edgeStyle=elbowEdgeStyle;elbow=horizontal;rounded=0;fontColor=default;endArrow=none;endFill=0;strokeWidth=8;labelBackgroundColor=none;" parent="1" source="133" target="139" edge="1">
          <mxGeometry width="100" height="100" relative="1" as="geometry">
            <mxPoint x="800" y="330" as="sourcePoint" />
            <mxPoint x="800" y="750" as="targetPoint" />
            <Array as="points">
              <mxPoint x="790" y="550" />
            </Array>
          </mxGeometry>
        </mxCell>
        <mxCell id="148" value="" style="edgeStyle=elbowEdgeStyle;elbow=horizontal;rounded=0;fontColor=default;endArrow=none;endFill=0;strokeWidth=8;labelBackgroundColor=none;" parent="1" source="133" target="138" edge="1">
          <mxGeometry width="100" height="100" relative="1" as="geometry">
            <mxPoint x="800" y="330" as="sourcePoint" />
            <mxPoint x="800" y="670" as="targetPoint" />
            <Array as="points">
              <mxPoint x="790" y="500" />
            </Array>
          </mxGeometry>
        </mxCell>
        <mxCell id="149" value="" style="edgeStyle=elbowEdgeStyle;elbow=horizontal;rounded=0;fontColor=default;endArrow=none;endFill=0;strokeWidth=8;labelBackgroundColor=none;" parent="1" source="133" target="137" edge="1">
          <mxGeometry width="100" height="100" relative="1" as="geometry">
            <mxPoint x="800" y="330" as="sourcePoint" />
            <mxPoint x="799.9999999999998" y="590" as="targetPoint" />
            <Array as="points">
              <mxPoint x="790" y="470" />
            </Array>
          </mxGeometry>
        </mxCell>
        <mxCell id="150" value="" style="edgeStyle=elbowEdgeStyle;elbow=horizontal;rounded=0;fontColor=default;endArrow=none;endFill=0;strokeWidth=8;labelBackgroundColor=none;" parent="1" source="134" target="140" edge="1">
          <mxGeometry width="100" height="100" relative="1" as="geometry">
            <mxPoint x="980" y="330.00000000000045" as="sourcePoint" />
            <mxPoint x="989.9999999999995" y="430" as="targetPoint" />
            <Array as="points">
              <mxPoint x="990" y="380" />
            </Array>
          </mxGeometry>
        </mxCell>
        <mxCell id="151" value="" style="edgeStyle=elbowEdgeStyle;elbow=horizontal;rounded=0;fontColor=default;endArrow=none;endFill=0;strokeWidth=8;labelBackgroundColor=none;" parent="1" source="134" target="141" edge="1">
          <mxGeometry width="100" height="100" relative="1" as="geometry">
            <mxPoint x="990" y="330" as="sourcePoint" />
            <mxPoint x="989.9999999999998" y="510" as="targetPoint" />
            <Array as="points">
              <mxPoint x="990" y="420" />
            </Array>
          </mxGeometry>
        </mxCell>
        <mxCell id="154" value="" style="edgeStyle=elbowEdgeStyle;elbow=horizontal;rounded=0;fontColor=default;endArrow=none;endFill=0;strokeWidth=8;labelBackgroundColor=none;" parent="1" source="134" target="142" edge="1">
          <mxGeometry width="100" height="100" relative="1" as="geometry">
            <mxPoint x="990" y="330" as="sourcePoint" />
            <mxPoint x="989.9999999999998" y="590" as="targetPoint" />
            <Array as="points">
              <mxPoint x="990" y="470" />
            </Array>
          </mxGeometry>
        </mxCell>
        <mxCell id="155" value="SUB-TASK 1" style="whiteSpace=wrap;rounded=1;strokeColor=#6c8ebf;shadow=1;labelBackgroundColor=none;fillStyle=auto;fillColor=#dae8fc;perimeterSpacing=0;" parent="1" vertex="1">
          <mxGeometry x="1179.9999999999998" y="300.0000000000002" width="120" height="60" as="geometry" />
        </mxCell>
        <mxCell id="156" value="SUB-TASK 2" style="whiteSpace=wrap;rounded=1;strokeColor=#6c8ebf;shadow=1;labelBackgroundColor=none;fillStyle=auto;fillColor=#dae8fc;perimeterSpacing=0;" parent="1" vertex="1">
          <mxGeometry x="1379.9999999999998" y="300.0000000000002" width="120" height="60" as="geometry" />
        </mxCell>
        <mxCell id="157" value="WORK&#xa;PACKAGE 1" style="whiteSpace=wrap;rounded=1;strokeColor=default;shadow=1;fontStyle=0;labelBackgroundColor=none;fillColor=default;perimeterSpacing=0;" parent="1" vertex="1">
          <mxGeometry x="1179.9999999999998" y="400.0000000000002" width="120" height="60" as="geometry" />
        </mxCell>
        <mxCell id="158" value="WORK&#xa;PACKAGE 2" style="whiteSpace=wrap;rounded=1;strokeColor=default;shadow=1;fontStyle=0;labelBackgroundColor=none;fillColor=default;perimeterSpacing=0;" parent="1" vertex="1">
          <mxGeometry x="1180" y="480.0000000000002" width="120" height="60" as="geometry" />
        </mxCell>
        <mxCell id="159" value="WORK&#xa;PACKAGE 3" style="whiteSpace=wrap;rounded=1;strokeColor=default;shadow=1;fontStyle=0;labelBackgroundColor=none;fillColor=default;perimeterSpacing=0;" parent="1" vertex="1">
          <mxGeometry x="1179.9999999999998" y="560.0000000000002" width="120" height="60" as="geometry" />
        </mxCell>
        <mxCell id="160" value="WORK&#xa;PACKAGE 4" style="whiteSpace=wrap;rounded=1;strokeColor=default;shadow=1;fontStyle=0;labelBackgroundColor=none;fillColor=default;perimeterSpacing=0;" parent="1" vertex="1">
          <mxGeometry x="1180" y="640.0000000000002" width="120" height="60" as="geometry" />
        </mxCell>
        <mxCell id="161" value="WORK&#xa;PACKAGE 5" style="whiteSpace=wrap;rounded=1;strokeColor=default;shadow=1;fontStyle=0;labelBackgroundColor=none;fillColor=default;perimeterSpacing=0;" parent="1" vertex="1">
          <mxGeometry x="1180" y="720.0000000000002" width="120" height="60" as="geometry" />
        </mxCell>
        <mxCell id="162" value="WORK&#xa;PACKAGE 1" style="whiteSpace=wrap;rounded=1;strokeColor=default;shadow=1;fontStyle=0;labelBackgroundColor=none;fillColor=default;perimeterSpacing=0;" parent="1" vertex="1">
          <mxGeometry x="1379.9999999999993" y="400.0000000000002" width="120" height="60" as="geometry" />
        </mxCell>
        <mxCell id="163" value="WORK&#xa;PACKAGE 2" style="whiteSpace=wrap;rounded=1;strokeColor=default;shadow=1;fontStyle=0;labelBackgroundColor=none;fillColor=default;perimeterSpacing=0;" parent="1" vertex="1">
          <mxGeometry x="1379.9999999999995" y="480.0000000000002" width="120" height="60" as="geometry" />
        </mxCell>
        <mxCell id="164" value="WORK&#xa;PACKAGE 3" style="whiteSpace=wrap;rounded=1;strokeColor=default;shadow=1;fontStyle=0;labelBackgroundColor=none;fillColor=default;perimeterSpacing=0;" parent="1" vertex="1">
          <mxGeometry x="1379.9999999999995" y="560.0000000000002" width="120" height="60" as="geometry" />
        </mxCell>
        <mxCell id="165" value="WORK&#xa;PACKAGE 4" style="whiteSpace=wrap;rounded=1;strokeColor=default;shadow=1;fontStyle=0;labelBackgroundColor=none;fillColor=default;perimeterSpacing=0;" parent="1" vertex="1">
          <mxGeometry x="1379.9999999999995" y="640.0000000000002" width="120" height="60" as="geometry" />
        </mxCell>
        <mxCell id="166" value="WORK&#xa;PACKAGE 5" style="whiteSpace=wrap;rounded=1;strokeColor=default;shadow=1;fontStyle=0;labelBackgroundColor=none;fillColor=default;perimeterSpacing=0;" parent="1" vertex="1">
          <mxGeometry x="1379.9999999999998" y="720.0000000000002" width="120" height="60" as="geometry" />
        </mxCell>
        <mxCell id="167" value="" style="edgeStyle=elbowEdgeStyle;elbow=horizontal;rounded=0;fontColor=default;endArrow=none;endFill=0;strokeWidth=8;labelBackgroundColor=none;" parent="1" source="155" target="157" edge="1">
          <mxGeometry width="100" height="100" relative="1" as="geometry">
            <mxPoint x="1160" y="330.00000000000057" as="sourcePoint" />
            <mxPoint x="1169.9999999999995" y="430.0000000000001" as="targetPoint" />
            <Array as="points">
              <mxPoint x="1160" y="380.0000000000001" />
            </Array>
          </mxGeometry>
        </mxCell>
        <mxCell id="168" value="" style="edgeStyle=elbowEdgeStyle;elbow=horizontal;rounded=0;fontColor=default;endArrow=none;endFill=0;strokeWidth=8;labelBackgroundColor=none;" parent="1" source="155" target="158" edge="1">
          <mxGeometry width="100" height="100" relative="1" as="geometry">
            <mxPoint x="1170" y="330.0000000000001" as="sourcePoint" />
            <mxPoint x="1169.9999999999998" y="510.0000000000001" as="targetPoint" />
            <Array as="points">
              <mxPoint x="1160" y="420.0000000000001" />
            </Array>
          </mxGeometry>
        </mxCell>
        <mxCell id="169" value="" style="edgeStyle=elbowEdgeStyle;elbow=horizontal;rounded=0;fontColor=default;endArrow=none;endFill=0;strokeWidth=8;labelBackgroundColor=none;" parent="1" source="155" target="161" edge="1">
          <mxGeometry width="100" height="100" relative="1" as="geometry">
            <mxPoint x="1170" y="330.0000000000001" as="sourcePoint" />
            <mxPoint x="1170" y="750.0000000000001" as="targetPoint" />
            <Array as="points">
              <mxPoint x="1160" y="550.0000000000001" />
            </Array>
          </mxGeometry>
        </mxCell>
        <mxCell id="170" value="" style="edgeStyle=elbowEdgeStyle;elbow=horizontal;rounded=0;fontColor=default;endArrow=none;endFill=0;strokeWidth=8;labelBackgroundColor=none;" parent="1" source="155" target="160" edge="1">
          <mxGeometry width="100" height="100" relative="1" as="geometry">
            <mxPoint x="1170" y="330.0000000000001" as="sourcePoint" />
            <mxPoint x="1170" y="670.0000000000001" as="targetPoint" />
            <Array as="points">
              <mxPoint x="1160" y="500.0000000000001" />
            </Array>
          </mxGeometry>
        </mxCell>
        <mxCell id="171" value="" style="edgeStyle=elbowEdgeStyle;elbow=horizontal;rounded=0;fontColor=default;endArrow=none;endFill=0;strokeWidth=8;labelBackgroundColor=none;" parent="1" source="155" target="159" edge="1">
          <mxGeometry width="100" height="100" relative="1" as="geometry">
            <mxPoint x="1170" y="330.0000000000001" as="sourcePoint" />
            <mxPoint x="1169.9999999999998" y="590.0000000000001" as="targetPoint" />
            <Array as="points">
              <mxPoint x="1160" y="470.0000000000001" />
            </Array>
          </mxGeometry>
        </mxCell>
        <mxCell id="172" value="" style="edgeStyle=elbowEdgeStyle;elbow=horizontal;rounded=0;fontColor=default;endArrow=none;endFill=0;strokeWidth=8;labelBackgroundColor=none;" parent="1" source="156" target="162" edge="1">
          <mxGeometry width="100" height="100" relative="1" as="geometry">
            <mxPoint x="1350" y="330.00000000000057" as="sourcePoint" />
            <mxPoint x="1359.9999999999995" y="430.0000000000001" as="targetPoint" />
            <Array as="points">
              <mxPoint x="1360" y="380.0000000000001" />
            </Array>
          </mxGeometry>
        </mxCell>
        <mxCell id="173" value="" style="edgeStyle=elbowEdgeStyle;elbow=horizontal;rounded=0;fontColor=default;endArrow=none;endFill=0;strokeWidth=8;labelBackgroundColor=none;" parent="1" source="156" target="163" edge="1">
          <mxGeometry width="100" height="100" relative="1" as="geometry">
            <mxPoint x="1360" y="330.0000000000001" as="sourcePoint" />
            <mxPoint x="1359.9999999999998" y="510.0000000000001" as="targetPoint" />
            <Array as="points">
              <mxPoint x="1360" y="420.0000000000001" />
            </Array>
          </mxGeometry>
        </mxCell>
        <mxCell id="174" value="" style="edgeStyle=elbowEdgeStyle;elbow=horizontal;rounded=0;fontColor=default;endArrow=none;endFill=0;strokeWidth=8;labelBackgroundColor=none;" parent="1" source="156" target="166" edge="1">
          <mxGeometry width="100" height="100" relative="1" as="geometry">
            <mxPoint x="1360" y="330.0000000000001" as="sourcePoint" />
            <mxPoint x="1360" y="750.0000000000001" as="targetPoint" />
            <Array as="points">
              <mxPoint x="1360" y="540.0000000000001" />
            </Array>
          </mxGeometry>
        </mxCell>
        <mxCell id="175" value="" style="edgeStyle=elbowEdgeStyle;elbow=horizontal;rounded=0;fontColor=default;endArrow=none;endFill=0;strokeWidth=8;labelBackgroundColor=none;" parent="1" source="156" target="165" edge="1">
          <mxGeometry width="100" height="100" relative="1" as="geometry">
            <mxPoint x="1360" y="330.0000000000001" as="sourcePoint" />
            <mxPoint x="1360" y="670.0000000000001" as="targetPoint" />
            <Array as="points">
              <mxPoint x="1360" y="500.0000000000001" />
            </Array>
          </mxGeometry>
        </mxCell>
        <mxCell id="176" value="" style="edgeStyle=elbowEdgeStyle;elbow=horizontal;rounded=0;fontColor=default;endArrow=none;endFill=0;strokeWidth=8;labelBackgroundColor=none;" parent="1" source="156" target="164" edge="1">
          <mxGeometry width="100" height="100" relative="1" as="geometry">
            <mxPoint x="1360" y="330.0000000000001" as="sourcePoint" />
            <mxPoint x="1359.9999999999998" y="590.0000000000001" as="targetPoint" />
            <Array as="points">
              <mxPoint x="1360" y="470.0000000000001" />
            </Array>
          </mxGeometry>
        </mxCell>
        <mxCell id="177" value="Users" style="whiteSpace=wrap;rounded=1;strokeColor=#6c8ebf;shadow=1;labelBackgroundColor=none;fillStyle=auto;fillColor=#dae8fc;perimeterSpacing=0;" parent="1" vertex="1">
          <mxGeometry x="1549.9999999999998" y="299.9999999999999" width="120" height="60" as="geometry" />
        </mxCell>
        <mxCell id="178" value="Catalogue" style="whiteSpace=wrap;rounded=1;strokeColor=#6c8ebf;shadow=1;labelBackgroundColor=none;fillStyle=auto;fillColor=#dae8fc;perimeterSpacing=0;" parent="1" vertex="1">
          <mxGeometry x="1749.9999999999998" y="299.9999999999999" width="120" height="60" as="geometry" />
        </mxCell>
        <mxCell id="179" value="Members" style="whiteSpace=wrap;rounded=1;strokeColor=default;shadow=1;fontStyle=0;labelBackgroundColor=none;fillColor=default;perimeterSpacing=0;" parent="1" vertex="1">
          <mxGeometry x="1549.9999999999998" y="399.9999999999999" width="120" height="60" as="geometry" />
        </mxCell>
        <mxCell id="180" value="Librarians" style="whiteSpace=wrap;rounded=1;strokeColor=default;shadow=1;fontStyle=0;labelBackgroundColor=none;fillColor=default;perimeterSpacing=0;" parent="1" vertex="1">
          <mxGeometry x="1550" y="479.9999999999999" width="120" height="60" as="geometry" />
        </mxCell>
        <mxCell id="181" value="Admins" style="whiteSpace=wrap;rounded=1;strokeColor=default;shadow=1;fontStyle=0;labelBackgroundColor=none;fillColor=default;perimeterSpacing=0;" parent="1" vertex="1">
          <mxGeometry x="1549.9999999999998" y="559.9999999999999" width="120" height="60" as="geometry" />
        </mxCell>
        <mxCell id="182" value="WORK&#xa;PACKAGE 4" style="whiteSpace=wrap;rounded=1;strokeColor=default;shadow=1;fontStyle=0;labelBackgroundColor=none;fillColor=default;perimeterSpacing=0;" parent="1" vertex="1">
          <mxGeometry x="1550" y="639.9999999999999" width="120" height="60" as="geometry" />
        </mxCell>
        <mxCell id="183" value="WORK&#xa;PACKAGE 5" style="whiteSpace=wrap;rounded=1;strokeColor=default;shadow=1;fontStyle=0;labelBackgroundColor=none;fillColor=default;perimeterSpacing=0;" parent="1" vertex="1">
          <mxGeometry x="1550" y="719.9999999999999" width="120" height="60" as="geometry" />
        </mxCell>
        <mxCell id="184" value="Book" style="whiteSpace=wrap;rounded=1;strokeColor=default;shadow=1;fontStyle=0;labelBackgroundColor=none;fillColor=default;perimeterSpacing=0;" parent="1" vertex="1">
          <mxGeometry x="1749.9999999999993" y="399.9999999999999" width="120" height="60" as="geometry" />
        </mxCell>
        <mxCell id="185" value="Search/filter tools " style="whiteSpace=wrap;rounded=1;strokeColor=default;shadow=1;fontStyle=0;labelBackgroundColor=none;fillColor=default;perimeterSpacing=0;" parent="1" vertex="1">
          <mxGeometry x="1749.9999999999995" y="479.9999999999999" width="120" height="60" as="geometry" />
        </mxCell>
        <mxCell id="186" value="WORK&#xa;PACKAGE 3" style="whiteSpace=wrap;rounded=1;strokeColor=default;shadow=1;fontStyle=0;labelBackgroundColor=none;fillColor=default;perimeterSpacing=0;" parent="1" vertex="1">
          <mxGeometry x="1749.9999999999995" y="559.9999999999999" width="120" height="60" as="geometry" />
        </mxCell>
        <mxCell id="187" value="WORK&#xa;PACKAGE 4" style="whiteSpace=wrap;rounded=1;strokeColor=default;shadow=1;fontStyle=0;labelBackgroundColor=none;fillColor=default;perimeterSpacing=0;" parent="1" vertex="1">
          <mxGeometry x="1749.9999999999995" y="639.9999999999999" width="120" height="60" as="geometry" />
        </mxCell>
        <mxCell id="188" value="WORK&#xa;PACKAGE 5" style="whiteSpace=wrap;rounded=1;strokeColor=default;shadow=1;fontStyle=0;labelBackgroundColor=none;fillColor=default;perimeterSpacing=0;" parent="1" vertex="1">
          <mxGeometry x="1749.9999999999998" y="719.9999999999999" width="120" height="60" as="geometry" />
        </mxCell>
        <mxCell id="189" value="" style="edgeStyle=elbowEdgeStyle;elbow=horizontal;rounded=0;fontColor=default;endArrow=none;endFill=0;strokeWidth=8;labelBackgroundColor=none;" parent="1" source="177" target="179" edge="1">
          <mxGeometry width="100" height="100" relative="1" as="geometry">
            <mxPoint x="1530" y="330.0000000000002" as="sourcePoint" />
            <mxPoint x="1539.9999999999995" y="429.9999999999998" as="targetPoint" />
            <Array as="points">
              <mxPoint x="1530" y="379.9999999999998" />
            </Array>
          </mxGeometry>
        </mxCell>
        <mxCell id="190" value="" style="edgeStyle=elbowEdgeStyle;elbow=horizontal;rounded=0;fontColor=default;endArrow=none;endFill=0;strokeWidth=8;labelBackgroundColor=none;" parent="1" source="177" target="180" edge="1">
          <mxGeometry width="100" height="100" relative="1" as="geometry">
            <mxPoint x="1540" y="329.9999999999998" as="sourcePoint" />
            <mxPoint x="1539.9999999999998" y="509.9999999999998" as="targetPoint" />
            <Array as="points">
              <mxPoint x="1530" y="419.9999999999998" />
            </Array>
          </mxGeometry>
        </mxCell>
        <mxCell id="191" value="" style="edgeStyle=elbowEdgeStyle;elbow=horizontal;rounded=0;fontColor=default;endArrow=none;endFill=0;strokeWidth=8;labelBackgroundColor=none;" parent="1" source="177" target="183" edge="1">
          <mxGeometry width="100" height="100" relative="1" as="geometry">
            <mxPoint x="1540" y="329.9999999999998" as="sourcePoint" />
            <mxPoint x="1540" y="749.9999999999998" as="targetPoint" />
            <Array as="points">
              <mxPoint x="1530" y="549.9999999999998" />
            </Array>
          </mxGeometry>
        </mxCell>
        <mxCell id="192" value="" style="edgeStyle=elbowEdgeStyle;elbow=horizontal;rounded=0;fontColor=default;endArrow=none;endFill=0;strokeWidth=8;labelBackgroundColor=none;" parent="1" source="177" target="182" edge="1">
          <mxGeometry width="100" height="100" relative="1" as="geometry">
            <mxPoint x="1540" y="329.9999999999998" as="sourcePoint" />
            <mxPoint x="1540" y="669.9999999999998" as="targetPoint" />
            <Array as="points">
              <mxPoint x="1530" y="499.9999999999998" />
            </Array>
          </mxGeometry>
        </mxCell>
        <mxCell id="193" value="" style="edgeStyle=elbowEdgeStyle;elbow=horizontal;rounded=0;fontColor=default;endArrow=none;endFill=0;strokeWidth=8;labelBackgroundColor=none;" parent="1" source="177" target="181" edge="1">
          <mxGeometry width="100" height="100" relative="1" as="geometry">
            <mxPoint x="1540" y="329.9999999999998" as="sourcePoint" />
            <mxPoint x="1539.9999999999998" y="589.9999999999998" as="targetPoint" />
            <Array as="points">
              <mxPoint x="1530" y="469.9999999999998" />
            </Array>
          </mxGeometry>
        </mxCell>
        <mxCell id="194" value="" style="edgeStyle=elbowEdgeStyle;elbow=horizontal;rounded=0;fontColor=default;endArrow=none;endFill=0;strokeWidth=8;labelBackgroundColor=none;" parent="1" source="178" target="184" edge="1">
          <mxGeometry width="100" height="100" relative="1" as="geometry">
            <mxPoint x="1720" y="330.0000000000002" as="sourcePoint" />
            <mxPoint x="1729.9999999999995" y="429.9999999999998" as="targetPoint" />
            <Array as="points">
              <mxPoint x="1730" y="379.9999999999998" />
            </Array>
          </mxGeometry>
        </mxCell>
        <mxCell id="195" value="" style="edgeStyle=elbowEdgeStyle;elbow=horizontal;rounded=0;fontColor=default;endArrow=none;endFill=0;strokeWidth=8;labelBackgroundColor=none;" parent="1" source="178" target="185" edge="1">
          <mxGeometry width="100" height="100" relative="1" as="geometry">
            <mxPoint x="1730" y="329.9999999999998" as="sourcePoint" />
            <mxPoint x="1729.9999999999998" y="509.9999999999998" as="targetPoint" />
            <Array as="points">
              <mxPoint x="1730" y="419.9999999999998" />
            </Array>
          </mxGeometry>
        </mxCell>
        <mxCell id="196" value="" style="edgeStyle=elbowEdgeStyle;elbow=horizontal;rounded=0;fontColor=default;endArrow=none;endFill=0;strokeWidth=8;labelBackgroundColor=none;" parent="1" source="178" target="188" edge="1">
          <mxGeometry width="100" height="100" relative="1" as="geometry">
            <mxPoint x="1730" y="329.9999999999998" as="sourcePoint" />
            <mxPoint x="1730" y="749.9999999999998" as="targetPoint" />
            <Array as="points">
              <mxPoint x="1730" y="539.9999999999998" />
            </Array>
          </mxGeometry>
        </mxCell>
        <mxCell id="197" value="" style="edgeStyle=elbowEdgeStyle;elbow=horizontal;rounded=0;fontColor=default;endArrow=none;endFill=0;strokeWidth=8;labelBackgroundColor=none;" parent="1" source="178" target="187" edge="1">
          <mxGeometry width="100" height="100" relative="1" as="geometry">
            <mxPoint x="1730" y="329.9999999999998" as="sourcePoint" />
            <mxPoint x="1730" y="669.9999999999998" as="targetPoint" />
            <Array as="points">
              <mxPoint x="1730" y="499.9999999999998" />
            </Array>
          </mxGeometry>
        </mxCell>
        <mxCell id="198" value="" style="edgeStyle=elbowEdgeStyle;elbow=horizontal;rounded=0;fontColor=default;endArrow=none;endFill=0;strokeWidth=8;labelBackgroundColor=none;" parent="1" source="178" target="186" edge="1">
          <mxGeometry width="100" height="100" relative="1" as="geometry">
            <mxPoint x="1730" y="329.9999999999998" as="sourcePoint" />
            <mxPoint x="1729.9999999999998" y="589.9999999999998" as="targetPoint" />
            <Array as="points">
              <mxPoint x="1730" y="469.9999999999998" />
            </Array>
          </mxGeometry>
        </mxCell>
        <mxCell id="199" value="SUB-TASK 1" style="whiteSpace=wrap;rounded=1;strokeColor=#6c8ebf;shadow=1;labelBackgroundColor=none;fillStyle=auto;fillColor=#dae8fc;perimeterSpacing=0;" parent="1" vertex="1">
          <mxGeometry x="2130" y="299.9999999999997" width="120" height="60" as="geometry" />
        </mxCell>
        <mxCell id="200" value="SUB-TASK 2" style="whiteSpace=wrap;rounded=1;strokeColor=#6c8ebf;shadow=1;labelBackgroundColor=none;fillStyle=auto;fillColor=#dae8fc;perimeterSpacing=0;" parent="1" vertex="1">
          <mxGeometry x="2330" y="299.9999999999997" width="120" height="60" as="geometry" />
        </mxCell>
        <mxCell id="201" value="WORK&#xa;PACKAGE 1" style="whiteSpace=wrap;rounded=1;strokeColor=default;shadow=1;fontStyle=0;labelBackgroundColor=none;fillColor=default;perimeterSpacing=0;" parent="1" vertex="1">
          <mxGeometry x="2130" y="399.9999999999997" width="120" height="60" as="geometry" />
        </mxCell>
        <mxCell id="202" value="WORK&#xa;PACKAGE 2" style="whiteSpace=wrap;rounded=1;strokeColor=default;shadow=1;fontStyle=0;labelBackgroundColor=none;fillColor=default;perimeterSpacing=0;" parent="1" vertex="1">
          <mxGeometry x="2130" y="479.9999999999997" width="120" height="60" as="geometry" />
        </mxCell>
        <mxCell id="203" value="WORK&#xa;PACKAGE 3" style="whiteSpace=wrap;rounded=1;strokeColor=default;shadow=1;fontStyle=0;labelBackgroundColor=none;fillColor=default;perimeterSpacing=0;" parent="1" vertex="1">
          <mxGeometry x="2130" y="559.9999999999997" width="120" height="60" as="geometry" />
        </mxCell>
        <mxCell id="204" value="WORK&#xa;PACKAGE 4" style="whiteSpace=wrap;rounded=1;strokeColor=default;shadow=1;fontStyle=0;labelBackgroundColor=none;fillColor=default;perimeterSpacing=0;" parent="1" vertex="1">
          <mxGeometry x="2130" y="639.9999999999997" width="120" height="60" as="geometry" />
        </mxCell>
        <mxCell id="205" value="WORK&#xa;PACKAGE 5" style="whiteSpace=wrap;rounded=1;strokeColor=default;shadow=1;fontStyle=0;labelBackgroundColor=none;fillColor=default;perimeterSpacing=0;" parent="1" vertex="1">
          <mxGeometry x="2130" y="719.9999999999997" width="120" height="60" as="geometry" />
        </mxCell>
        <mxCell id="206" value="WORK&#xa;PACKAGE 1" style="whiteSpace=wrap;rounded=1;strokeColor=default;shadow=1;fontStyle=0;labelBackgroundColor=none;fillColor=default;perimeterSpacing=0;" parent="1" vertex="1">
          <mxGeometry x="2329.999999999999" y="399.9999999999997" width="120" height="60" as="geometry" />
        </mxCell>
        <mxCell id="207" value="WORK&#xa;PACKAGE 2" style="whiteSpace=wrap;rounded=1;strokeColor=default;shadow=1;fontStyle=0;labelBackgroundColor=none;fillColor=default;perimeterSpacing=0;" parent="1" vertex="1">
          <mxGeometry x="2329.9999999999995" y="479.9999999999997" width="120" height="60" as="geometry" />
        </mxCell>
        <mxCell id="208" value="WORK&#xa;PACKAGE 3" style="whiteSpace=wrap;rounded=1;strokeColor=default;shadow=1;fontStyle=0;labelBackgroundColor=none;fillColor=default;perimeterSpacing=0;" parent="1" vertex="1">
          <mxGeometry x="2329.9999999999995" y="559.9999999999997" width="120" height="60" as="geometry" />
        </mxCell>
        <mxCell id="209" value="WORK&#xa;PACKAGE 4" style="whiteSpace=wrap;rounded=1;strokeColor=default;shadow=1;fontStyle=0;labelBackgroundColor=none;fillColor=default;perimeterSpacing=0;" parent="1" vertex="1">
          <mxGeometry x="2329.9999999999995" y="639.9999999999997" width="120" height="60" as="geometry" />
        </mxCell>
        <mxCell id="210" value="WORK&#xa;PACKAGE 5" style="whiteSpace=wrap;rounded=1;strokeColor=default;shadow=1;fontStyle=0;labelBackgroundColor=none;fillColor=default;perimeterSpacing=0;" parent="1" vertex="1">
          <mxGeometry x="2330" y="719.9999999999997" width="120" height="60" as="geometry" />
        </mxCell>
        <mxCell id="211" value="" style="edgeStyle=elbowEdgeStyle;elbow=horizontal;rounded=0;fontColor=default;endArrow=none;endFill=0;strokeWidth=8;labelBackgroundColor=none;" parent="1" source="199" target="201" edge="1">
          <mxGeometry width="100" height="100" relative="1" as="geometry">
            <mxPoint x="2110" y="330.00000000000006" as="sourcePoint" />
            <mxPoint x="2119.9999999999995" y="429.9999999999996" as="targetPoint" />
            <Array as="points">
              <mxPoint x="2110" y="379.9999999999996" />
            </Array>
          </mxGeometry>
        </mxCell>
        <mxCell id="212" value="" style="edgeStyle=elbowEdgeStyle;elbow=horizontal;rounded=0;fontColor=default;endArrow=none;endFill=0;strokeWidth=8;labelBackgroundColor=none;" parent="1" source="199" target="202" edge="1">
          <mxGeometry width="100" height="100" relative="1" as="geometry">
            <mxPoint x="2120" y="329.9999999999996" as="sourcePoint" />
            <mxPoint x="2120" y="509.9999999999996" as="targetPoint" />
            <Array as="points">
              <mxPoint x="2110" y="419.9999999999996" />
            </Array>
          </mxGeometry>
        </mxCell>
        <mxCell id="213" value="" style="edgeStyle=elbowEdgeStyle;elbow=horizontal;rounded=0;fontColor=default;endArrow=none;endFill=0;strokeWidth=8;labelBackgroundColor=none;" parent="1" source="199" target="205" edge="1">
          <mxGeometry width="100" height="100" relative="1" as="geometry">
            <mxPoint x="2120" y="329.9999999999996" as="sourcePoint" />
            <mxPoint x="2120" y="749.9999999999995" as="targetPoint" />
            <Array as="points">
              <mxPoint x="2110" y="549.9999999999995" />
            </Array>
          </mxGeometry>
        </mxCell>
        <mxCell id="214" value="" style="edgeStyle=elbowEdgeStyle;elbow=horizontal;rounded=0;fontColor=default;endArrow=none;endFill=0;strokeWidth=8;labelBackgroundColor=none;" parent="1" source="199" target="204" edge="1">
          <mxGeometry width="100" height="100" relative="1" as="geometry">
            <mxPoint x="2120" y="329.9999999999996" as="sourcePoint" />
            <mxPoint x="2120" y="669.9999999999995" as="targetPoint" />
            <Array as="points">
              <mxPoint x="2110" y="499.9999999999996" />
            </Array>
          </mxGeometry>
        </mxCell>
        <mxCell id="215" value="" style="edgeStyle=elbowEdgeStyle;elbow=horizontal;rounded=0;fontColor=default;endArrow=none;endFill=0;strokeWidth=8;labelBackgroundColor=none;" parent="1" source="199" target="203" edge="1">
          <mxGeometry width="100" height="100" relative="1" as="geometry">
            <mxPoint x="2120" y="329.9999999999996" as="sourcePoint" />
            <mxPoint x="2120" y="589.9999999999995" as="targetPoint" />
            <Array as="points">
              <mxPoint x="2110" y="469.9999999999996" />
            </Array>
          </mxGeometry>
        </mxCell>
        <mxCell id="216" value="" style="edgeStyle=elbowEdgeStyle;elbow=horizontal;rounded=0;fontColor=default;endArrow=none;endFill=0;strokeWidth=8;labelBackgroundColor=none;" parent="1" source="200" target="206" edge="1">
          <mxGeometry width="100" height="100" relative="1" as="geometry">
            <mxPoint x="2300" y="330.00000000000006" as="sourcePoint" />
            <mxPoint x="2309.9999999999995" y="429.9999999999996" as="targetPoint" />
            <Array as="points">
              <mxPoint x="2310" y="379.9999999999996" />
            </Array>
          </mxGeometry>
        </mxCell>
        <mxCell id="217" value="" style="edgeStyle=elbowEdgeStyle;elbow=horizontal;rounded=0;fontColor=default;endArrow=none;endFill=0;strokeWidth=8;labelBackgroundColor=none;" parent="1" source="200" target="207" edge="1">
          <mxGeometry width="100" height="100" relative="1" as="geometry">
            <mxPoint x="2310" y="329.9999999999996" as="sourcePoint" />
            <mxPoint x="2310" y="509.9999999999996" as="targetPoint" />
            <Array as="points">
              <mxPoint x="2310" y="419.9999999999996" />
            </Array>
          </mxGeometry>
        </mxCell>
        <mxCell id="218" value="" style="edgeStyle=elbowEdgeStyle;elbow=horizontal;rounded=0;fontColor=default;endArrow=none;endFill=0;strokeWidth=8;labelBackgroundColor=none;" parent="1" source="200" target="210" edge="1">
          <mxGeometry width="100" height="100" relative="1" as="geometry">
            <mxPoint x="2310" y="329.9999999999996" as="sourcePoint" />
            <mxPoint x="2310" y="749.9999999999995" as="targetPoint" />
            <Array as="points">
              <mxPoint x="2310" y="539.9999999999995" />
            </Array>
          </mxGeometry>
        </mxCell>
        <mxCell id="219" value="" style="edgeStyle=elbowEdgeStyle;elbow=horizontal;rounded=0;fontColor=default;endArrow=none;endFill=0;strokeWidth=8;labelBackgroundColor=none;" parent="1" source="200" target="209" edge="1">
          <mxGeometry width="100" height="100" relative="1" as="geometry">
            <mxPoint x="2310" y="329.9999999999996" as="sourcePoint" />
            <mxPoint x="2310" y="669.9999999999995" as="targetPoint" />
            <Array as="points">
              <mxPoint x="2310" y="499.9999999999996" />
            </Array>
          </mxGeometry>
        </mxCell>
        <mxCell id="220" value="" style="edgeStyle=elbowEdgeStyle;elbow=horizontal;rounded=0;fontColor=default;endArrow=none;endFill=0;strokeWidth=8;labelBackgroundColor=none;" parent="1" source="200" target="208" edge="1">
          <mxGeometry width="100" height="100" relative="1" as="geometry">
            <mxPoint x="2310" y="329.9999999999996" as="sourcePoint" />
            <mxPoint x="2310" y="589.9999999999995" as="targetPoint" />
            <Array as="points">
              <mxPoint x="2310" y="469.9999999999996" />
            </Array>
          </mxGeometry>
        </mxCell>
        <mxCell id="221" value="" style="edgeStyle=elbowEdgeStyle;elbow=vertical;rounded=0;fontColor=default;endArrow=none;endFill=0;strokeWidth=8;labelBackgroundColor=none;" parent="1" source="6" target="133" edge="1">
          <mxGeometry width="100" height="100" relative="1" as="geometry">
            <mxPoint x="780" y="270" as="sourcePoint" />
            <mxPoint x="880" y="170" as="targetPoint" />
          </mxGeometry>
        </mxCell>
        <mxCell id="222" value="" style="edgeStyle=elbowEdgeStyle;elbow=vertical;rounded=0;fontColor=default;endArrow=none;endFill=0;strokeWidth=8;labelBackgroundColor=none;" parent="1" source="6" target="134" edge="1">
          <mxGeometry width="100" height="100" relative="1" as="geometry">
            <mxPoint x="1030" y="280" as="sourcePoint" />
            <mxPoint x="1130" y="180" as="targetPoint" />
          </mxGeometry>
        </mxCell>
        <mxCell id="223" value="" style="edgeStyle=elbowEdgeStyle;elbow=vertical;rounded=0;fontColor=default;endArrow=none;endFill=0;strokeWidth=8;labelBackgroundColor=none;" parent="1" source="7" target="155" edge="1">
          <mxGeometry width="100" height="100" relative="1" as="geometry">
            <mxPoint x="1340" y="300" as="sourcePoint" />
            <mxPoint x="1240" y="190" as="targetPoint" />
          </mxGeometry>
        </mxCell>
        <mxCell id="224" value="" style="edgeStyle=elbowEdgeStyle;elbow=vertical;rounded=0;fontColor=default;endArrow=none;endFill=0;strokeWidth=8;labelBackgroundColor=none;" parent="1" source="7" target="156" edge="1">
          <mxGeometry width="100" height="100" relative="1" as="geometry">
            <mxPoint x="1430" y="290" as="sourcePoint" />
            <mxPoint x="1530" y="190" as="targetPoint" />
          </mxGeometry>
        </mxCell>
        <mxCell id="225" value="" style="edgeStyle=elbowEdgeStyle;elbow=vertical;rounded=0;fontColor=default;endArrow=none;endFill=0;strokeWidth=8;labelBackgroundColor=none;" parent="1" source="8" target="177" edge="1">
          <mxGeometry width="100" height="100" relative="1" as="geometry">
            <mxPoint x="1550" y="290" as="sourcePoint" />
            <mxPoint x="1650" y="190" as="targetPoint" />
          </mxGeometry>
        </mxCell>
        <mxCell id="226" value="" style="edgeStyle=elbowEdgeStyle;elbow=vertical;rounded=0;fontColor=default;endArrow=none;endFill=0;strokeWidth=8;labelBackgroundColor=none;" parent="1" source="8" target="178" edge="1">
          <mxGeometry width="100" height="100" relative="1" as="geometry">
            <mxPoint x="1780" y="290" as="sourcePoint" />
            <mxPoint x="1880" y="190" as="targetPoint" />
          </mxGeometry>
        </mxCell>
        <mxCell id="227" value="" style="edgeStyle=elbowEdgeStyle;elbow=vertical;rounded=0;fontColor=default;endArrow=none;endFill=0;strokeWidth=8;labelBackgroundColor=none;" parent="1" source="5" target="199" edge="1">
          <mxGeometry width="100" height="100" relative="1" as="geometry">
            <mxPoint x="2110" y="290" as="sourcePoint" />
            <mxPoint x="2210" y="190" as="targetPoint" />
          </mxGeometry>
        </mxCell>
        <mxCell id="228" value="" style="edgeStyle=elbowEdgeStyle;elbow=vertical;rounded=0;fontColor=default;endArrow=none;endFill=0;strokeWidth=8;labelBackgroundColor=none;" parent="1" source="5" target="200" edge="1">
          <mxGeometry width="100" height="100" relative="1" as="geometry">
            <mxPoint x="2370" y="290" as="sourcePoint" />
            <mxPoint x="2470" y="190" as="targetPoint" />
          </mxGeometry>
        </mxCell>
        <mxCell id="229" value="" style="edgeStyle=elbowEdgeStyle;elbow=vertical;rounded=0;fontColor=default;endArrow=none;endFill=0;strokeWidth=8;labelBackgroundColor=none;" parent="1" source="2" target="3" edge="1">
          <mxGeometry width="100" height="100" relative="1" as="geometry">
            <mxPoint x="540" y="140" as="sourcePoint" />
            <mxPoint x="640" y="40" as="targetPoint" />
          </mxGeometry>
        </mxCell>
        <mxCell id="230" value="" style="edgeStyle=elbowEdgeStyle;elbow=vertical;rounded=0;fontColor=default;endArrow=none;endFill=0;strokeWidth=8;labelBackgroundColor=none;" parent="1" source="2" target="4" edge="1">
          <mxGeometry width="100" height="100" relative="1" as="geometry">
            <mxPoint x="550" y="150" as="sourcePoint" />
            <mxPoint x="650" y="50" as="targetPoint" />
          </mxGeometry>
        </mxCell>
        <mxCell id="231" value="" style="edgeStyle=elbowEdgeStyle;elbow=vertical;rounded=0;fontColor=default;endArrow=none;endFill=0;strokeWidth=8;labelBackgroundColor=none;" parent="1" source="2" target="6" edge="1">
          <mxGeometry width="100" height="100" relative="1" as="geometry">
            <mxPoint x="560" y="160" as="sourcePoint" />
            <mxPoint x="660" y="60" as="targetPoint" />
          </mxGeometry>
        </mxCell>
        <mxCell id="232" value="" style="edgeStyle=elbowEdgeStyle;elbow=vertical;rounded=0;fontColor=default;endArrow=none;endFill=0;strokeWidth=8;labelBackgroundColor=none;" parent="1" source="2" target="7" edge="1">
          <mxGeometry width="100" height="100" relative="1" as="geometry">
            <mxPoint x="570" y="170" as="sourcePoint" />
            <mxPoint x="670" y="70" as="targetPoint" />
          </mxGeometry>
        </mxCell>
        <mxCell id="233" value="" style="edgeStyle=elbowEdgeStyle;elbow=vertical;rounded=0;fontColor=default;endArrow=none;endFill=0;strokeWidth=8;labelBackgroundColor=none;" parent="1" source="2" target="8" edge="1">
          <mxGeometry width="100" height="100" relative="1" as="geometry">
            <mxPoint x="580" y="180" as="sourcePoint" />
            <mxPoint x="680" y="80" as="targetPoint" />
          </mxGeometry>
        </mxCell>
        <mxCell id="234" value="" style="edgeStyle=elbowEdgeStyle;elbow=vertical;rounded=0;fontColor=default;endArrow=none;endFill=0;strokeWidth=8;labelBackgroundColor=none;" parent="1" source="2" target="5" edge="1">
          <mxGeometry width="100" height="100" relative="1" as="geometry">
            <mxPoint x="590" y="190" as="sourcePoint" />
            <mxPoint x="690" y="90" as="targetPoint" />
          </mxGeometry>
        </mxCell>
        <mxCell id="jLGF6nwNUdvs7A109S48-248" style="edgeStyle=orthogonalEdgeStyle;rounded=0;orthogonalLoop=1;jettySize=auto;html=1;exitX=0.5;exitY=0;exitDx=0;exitDy=0;entryX=0.5;entryY=1;entryDx=0;entryDy=0;strokeWidth=8;strokeColor=default;endArrow=none;endFill=0;" edge="1" parent="1" source="jLGF6nwNUdvs7A109S48-234" target="6">
          <mxGeometry relative="1" as="geometry" />
        </mxCell>
        <mxCell id="jLGF6nwNUdvs7A109S48-234" value="User account registration" style="whiteSpace=wrap;rounded=1;strokeColor=#6c8ebf;shadow=1;labelBackgroundColor=none;fillStyle=auto;fillColor=#dae8fc;perimeterSpacing=0;" vertex="1" parent="1">
          <mxGeometry x="619.9999999999998" y="300.0000000000001" width="120" height="60" as="geometry" />
        </mxCell>
        <mxCell id="jLGF6nwNUdvs7A109S48-235" value="Registration Page" style="whiteSpace=wrap;rounded=1;shadow=1;fontStyle=0;labelBackgroundColor=none;perimeterSpacing=0;" vertex="1" parent="1">
          <mxGeometry x="619.9999999999998" y="400.0000000000001" width="120" height="60" as="geometry" />
        </mxCell>
        <mxCell id="jLGF6nwNUdvs7A109S48-236" value="Admin allows user onto system" style="whiteSpace=wrap;rounded=1;strokeColor=default;shadow=1;fontStyle=0;labelBackgroundColor=none;fillColor=default;perimeterSpacing=0;" vertex="1" parent="1">
          <mxGeometry x="619.9999999999999" y="480.0000000000001" width="120" height="60" as="geometry" />
        </mxCell>
        <mxCell id="jLGF6nwNUdvs7A109S48-237" value="WORK&#xa;PACKAGE 3" style="whiteSpace=wrap;rounded=1;strokeColor=default;shadow=1;fontStyle=0;labelBackgroundColor=none;fillColor=default;perimeterSpacing=0;" vertex="1" parent="1">
          <mxGeometry x="619.9999999999998" y="560.0000000000001" width="120" height="60" as="geometry" />
        </mxCell>
        <mxCell id="jLGF6nwNUdvs7A109S48-238" value="WORK&#xa;PACKAGE 4" style="whiteSpace=wrap;rounded=1;strokeColor=default;shadow=1;fontStyle=0;labelBackgroundColor=none;fillColor=default;perimeterSpacing=0;" vertex="1" parent="1">
          <mxGeometry x="620" y="640.0000000000001" width="120" height="60" as="geometry" />
        </mxCell>
        <mxCell id="jLGF6nwNUdvs7A109S48-239" value="WORK&#xa;PACKAGE 5" style="whiteSpace=wrap;rounded=1;strokeColor=default;shadow=1;fontStyle=0;labelBackgroundColor=none;fillColor=default;perimeterSpacing=0;" vertex="1" parent="1">
          <mxGeometry x="620.0000000000001" y="720.0000000000001" width="120" height="60" as="geometry" />
        </mxCell>
        <mxCell id="jLGF6nwNUdvs7A109S48-240" value="" style="edgeStyle=elbowEdgeStyle;elbow=horizontal;rounded=0;fontColor=default;endArrow=none;endFill=0;strokeWidth=8;labelBackgroundColor=none;" edge="1" parent="1" source="jLGF6nwNUdvs7A109S48-234" target="jLGF6nwNUdvs7A109S48-235">
          <mxGeometry width="100" height="100" relative="1" as="geometry">
            <mxPoint x="600" y="330.00000000000045" as="sourcePoint" />
            <mxPoint x="609.9999999999995" y="430" as="targetPoint" />
            <Array as="points">
              <mxPoint x="600" y="380" />
            </Array>
          </mxGeometry>
        </mxCell>
        <mxCell id="jLGF6nwNUdvs7A109S48-241" value="" style="edgeStyle=elbowEdgeStyle;elbow=horizontal;rounded=0;fontColor=default;endArrow=none;endFill=0;strokeWidth=8;labelBackgroundColor=none;" edge="1" parent="1" source="jLGF6nwNUdvs7A109S48-234" target="jLGF6nwNUdvs7A109S48-236">
          <mxGeometry width="100" height="100" relative="1" as="geometry">
            <mxPoint x="610" y="330" as="sourcePoint" />
            <mxPoint x="609.9999999999998" y="510" as="targetPoint" />
            <Array as="points">
              <mxPoint x="600" y="420" />
            </Array>
          </mxGeometry>
        </mxCell>
        <mxCell id="jLGF6nwNUdvs7A109S48-242" value="" style="edgeStyle=elbowEdgeStyle;elbow=horizontal;rounded=0;fontColor=default;endArrow=none;endFill=0;strokeWidth=8;labelBackgroundColor=none;" edge="1" parent="1" source="jLGF6nwNUdvs7A109S48-234" target="jLGF6nwNUdvs7A109S48-239">
          <mxGeometry width="100" height="100" relative="1" as="geometry">
            <mxPoint x="610" y="330" as="sourcePoint" />
            <mxPoint x="610" y="750" as="targetPoint" />
            <Array as="points">
              <mxPoint x="600" y="550" />
            </Array>
          </mxGeometry>
        </mxCell>
        <mxCell id="jLGF6nwNUdvs7A109S48-243" value="" style="edgeStyle=elbowEdgeStyle;elbow=horizontal;rounded=0;fontColor=default;endArrow=none;endFill=0;strokeWidth=8;labelBackgroundColor=none;" edge="1" parent="1" source="jLGF6nwNUdvs7A109S48-234" target="jLGF6nwNUdvs7A109S48-238">
          <mxGeometry width="100" height="100" relative="1" as="geometry">
            <mxPoint x="610" y="330" as="sourcePoint" />
            <mxPoint x="610" y="670" as="targetPoint" />
            <Array as="points">
              <mxPoint x="600" y="500" />
            </Array>
          </mxGeometry>
        </mxCell>
        <mxCell id="jLGF6nwNUdvs7A109S48-244" value="" style="edgeStyle=elbowEdgeStyle;elbow=horizontal;rounded=0;fontColor=default;endArrow=none;endFill=0;strokeWidth=8;labelBackgroundColor=none;" edge="1" parent="1" source="jLGF6nwNUdvs7A109S48-234" target="jLGF6nwNUdvs7A109S48-237">
          <mxGeometry width="100" height="100" relative="1" as="geometry">
            <mxPoint x="610" y="330" as="sourcePoint" />
            <mxPoint x="609.9999999999998" y="590" as="targetPoint" />
            <Array as="points">
              <mxPoint x="600" y="470" />
            </Array>
          </mxGeometry>
        </mxCell>
        <mxCell id="jLGF6nwNUdvs7A109S48-274" style="edgeStyle=orthogonalEdgeStyle;rounded=0;orthogonalLoop=1;jettySize=auto;html=1;exitX=0.5;exitY=0;exitDx=0;exitDy=0;entryX=0.5;entryY=1;entryDx=0;entryDy=0;strokeWidth=8;endArrow=none;endFill=0;" edge="1" parent="1" source="jLGF6nwNUdvs7A109S48-249" target="2">
          <mxGeometry relative="1" as="geometry" />
        </mxCell>
        <mxCell id="jLGF6nwNUdvs7A109S48-249" value="Administration" style="whiteSpace=wrap;rounded=1;strokeColor=#9673a6;shadow=1;fontStyle=1;fontSize=14;labelBackgroundColor=none;fillColor=#e1d5e7;" vertex="1" parent="1">
          <mxGeometry x="-750" y="169.9999999999998" width="140" height="60" as="geometry" />
        </mxCell>
        <mxCell id="jLGF6nwNUdvs7A109S48-250" value="Databse managment" style="whiteSpace=wrap;rounded=1;strokeColor=#6c8ebf;shadow=1;labelBackgroundColor=none;fillStyle=auto;fillColor=#dae8fc;perimeterSpacing=0;" vertex="1" parent="1">
          <mxGeometry x="-740" y="300.0000000000001" width="120" height="60" as="geometry" />
        </mxCell>
        <mxCell id="jLGF6nwNUdvs7A109S48-251" value="User Managment" style="whiteSpace=wrap;rounded=1;strokeColor=#6c8ebf;shadow=1;labelBackgroundColor=none;fillStyle=auto;fillColor=#dae8fc;perimeterSpacing=0;" vertex="1" parent="1">
          <mxGeometry x="-540" y="300.0000000000001" width="120" height="60" as="geometry" />
        </mxCell>
        <mxCell id="jLGF6nwNUdvs7A109S48-252" value="Manage catalogue" style="whiteSpace=wrap;rounded=1;strokeColor=default;shadow=1;fontStyle=0;labelBackgroundColor=none;fillColor=default;perimeterSpacing=0;" vertex="1" parent="1">
          <mxGeometry x="-740" y="400.0000000000001" width="120" height="60" as="geometry" />
        </mxCell>
        <mxCell id="jLGF6nwNUdvs7A109S48-253" value="Manage library" style="whiteSpace=wrap;rounded=1;strokeColor=default;shadow=1;fontStyle=0;labelBackgroundColor=none;fillColor=default;perimeterSpacing=0;" vertex="1" parent="1">
          <mxGeometry x="-739.9999999999999" y="480.0000000000001" width="120" height="60" as="geometry" />
        </mxCell>
        <mxCell id="jLGF6nwNUdvs7A109S48-254" value="Backup and restore" style="whiteSpace=wrap;rounded=1;strokeColor=default;shadow=1;fontStyle=0;labelBackgroundColor=none;fillColor=default;perimeterSpacing=0;" vertex="1" parent="1">
          <mxGeometry x="-740" y="560.0000000000001" width="120" height="60" as="geometry" />
        </mxCell>
        <mxCell id="jLGF6nwNUdvs7A109S48-257" value="Allow member account" style="whiteSpace=wrap;rounded=1;shadow=1;fontStyle=0;labelBackgroundColor=none;perimeterSpacing=0;" vertex="1" parent="1">
          <mxGeometry x="-540.0000000000005" y="400.0000000000001" width="120" height="60" as="geometry" />
        </mxCell>
        <mxCell id="jLGF6nwNUdvs7A109S48-258" value="Allow Librarian account" style="whiteSpace=wrap;rounded=1;shadow=1;fontStyle=0;labelBackgroundColor=none;perimeterSpacing=0;" vertex="1" parent="1">
          <mxGeometry x="-540.0000000000002" y="480.0000000000001" width="120" height="60" as="geometry" />
        </mxCell>
        <mxCell id="jLGF6nwNUdvs7A109S48-259" value="Edit user permissions" style="whiteSpace=wrap;rounded=1;shadow=1;fontStyle=0;labelBackgroundColor=none;perimeterSpacing=0;" vertex="1" parent="1">
          <mxGeometry x="-540.0000000000002" y="560.0000000000001" width="120" height="60" as="geometry" />
        </mxCell>
        <mxCell id="jLGF6nwNUdvs7A109S48-260" value="Manage user data" style="whiteSpace=wrap;rounded=1;strokeColor=default;shadow=1;fontStyle=0;labelBackgroundColor=none;fillColor=default;perimeterSpacing=0;" vertex="1" parent="1">
          <mxGeometry x="-540.0000000000001" y="640.0000000000001" width="120" height="60" as="geometry" />
        </mxCell>
        <mxCell id="jLGF6nwNUdvs7A109S48-262" value="" style="edgeStyle=elbowEdgeStyle;elbow=vertical;rounded=0;fontColor=default;endArrow=none;endFill=0;strokeWidth=8;labelBackgroundColor=none;" edge="1" parent="1" source="jLGF6nwNUdvs7A109S48-249" target="jLGF6nwNUdvs7A109S48-250">
          <mxGeometry width="100" height="100" relative="1" as="geometry">
            <mxPoint x="-790" y="290" as="sourcePoint" />
            <mxPoint x="-690" y="190" as="targetPoint" />
          </mxGeometry>
        </mxCell>
        <mxCell id="jLGF6nwNUdvs7A109S48-263" value="" style="edgeStyle=elbowEdgeStyle;elbow=vertical;rounded=0;fontColor=default;endArrow=none;endFill=0;strokeWidth=8;labelBackgroundColor=none;" edge="1" parent="1" source="jLGF6nwNUdvs7A109S48-249" target="jLGF6nwNUdvs7A109S48-251">
          <mxGeometry width="100" height="100" relative="1" as="geometry">
            <mxPoint x="-450" y="290" as="sourcePoint" />
            <mxPoint x="-350" y="190" as="targetPoint" />
          </mxGeometry>
        </mxCell>
        <mxCell id="jLGF6nwNUdvs7A109S48-264" value="" style="edgeStyle=elbowEdgeStyle;elbow=horizontal;rounded=0;fontColor=default;endArrow=none;endFill=0;strokeWidth=8;labelBackgroundColor=none;" edge="1" parent="1" source="jLGF6nwNUdvs7A109S48-250" target="jLGF6nwNUdvs7A109S48-252">
          <mxGeometry width="100" height="100" relative="1" as="geometry">
            <mxPoint x="-800" y="480" as="sourcePoint" />
            <mxPoint x="-700" y="380" as="targetPoint" />
            <Array as="points">
              <mxPoint x="-760" y="380" />
            </Array>
          </mxGeometry>
        </mxCell>
        <mxCell id="jLGF6nwNUdvs7A109S48-265" value="" style="edgeStyle=elbowEdgeStyle;elbow=horizontal;rounded=0;fontColor=default;endArrow=none;endFill=0;strokeWidth=8;labelBackgroundColor=none;" edge="1" parent="1" source="jLGF6nwNUdvs7A109S48-250" target="jLGF6nwNUdvs7A109S48-253">
          <mxGeometry width="100" height="100" relative="1" as="geometry">
            <mxPoint x="-730" y="340" as="sourcePoint" />
            <mxPoint x="-730" y="440" as="targetPoint" />
            <Array as="points">
              <mxPoint x="-760" y="400" />
            </Array>
          </mxGeometry>
        </mxCell>
        <mxCell id="jLGF6nwNUdvs7A109S48-268" value="" style="edgeStyle=elbowEdgeStyle;elbow=horizontal;rounded=0;fontColor=default;endArrow=none;endFill=0;strokeWidth=8;labelBackgroundColor=none;" edge="1" parent="1" source="jLGF6nwNUdvs7A109S48-250" target="jLGF6nwNUdvs7A109S48-254">
          <mxGeometry width="100" height="100" relative="1" as="geometry">
            <mxPoint x="-700" y="370" as="sourcePoint" />
            <mxPoint x="-700" y="470" as="targetPoint" />
            <Array as="points">
              <mxPoint x="-760" y="430" />
            </Array>
          </mxGeometry>
        </mxCell>
        <mxCell id="jLGF6nwNUdvs7A109S48-269" value="" style="edgeStyle=elbowEdgeStyle;elbow=horizontal;rounded=0;fontColor=default;endArrow=none;endFill=0;strokeWidth=8;labelBackgroundColor=none;" edge="1" parent="1" target="jLGF6nwNUdvs7A109S48-257">
          <mxGeometry width="100" height="100" relative="1" as="geometry">
            <mxPoint x="-550" y="330.0000000000004" as="sourcePoint" />
            <mxPoint x="-550" y="430.0000000000004" as="targetPoint" />
            <Array as="points">
              <mxPoint x="-560" y="380" />
            </Array>
          </mxGeometry>
        </mxCell>
        <mxCell id="jLGF6nwNUdvs7A109S48-270" value="" style="edgeStyle=elbowEdgeStyle;elbow=horizontal;rounded=0;fontColor=default;endArrow=none;endFill=0;strokeWidth=8;labelBackgroundColor=none;" edge="1" parent="1" source="jLGF6nwNUdvs7A109S48-251" target="jLGF6nwNUdvs7A109S48-258">
          <mxGeometry width="100" height="100" relative="1" as="geometry">
            <mxPoint x="-550" y="330.0000000000004" as="sourcePoint" />
            <mxPoint x="-550" y="510.00000000000045" as="targetPoint" />
            <Array as="points">
              <mxPoint x="-560" y="420" />
            </Array>
          </mxGeometry>
        </mxCell>
        <mxCell id="jLGF6nwNUdvs7A109S48-272" value="" style="edgeStyle=elbowEdgeStyle;elbow=horizontal;rounded=0;fontColor=default;endArrow=none;endFill=0;strokeWidth=8;labelBackgroundColor=none;" edge="1" parent="1" source="jLGF6nwNUdvs7A109S48-251" target="jLGF6nwNUdvs7A109S48-260">
          <mxGeometry width="100" height="100" relative="1" as="geometry">
            <mxPoint x="-550" y="330.0000000000004" as="sourcePoint" />
            <mxPoint x="-549.9999999999998" y="670.0000000000003" as="targetPoint" />
            <Array as="points">
              <mxPoint x="-560" y="500" />
            </Array>
          </mxGeometry>
        </mxCell>
        <mxCell id="jLGF6nwNUdvs7A109S48-273" value="" style="edgeStyle=elbowEdgeStyle;elbow=horizontal;rounded=0;fontColor=default;endArrow=none;endFill=0;strokeWidth=8;labelBackgroundColor=none;" edge="1" parent="1" source="jLGF6nwNUdvs7A109S48-251" target="jLGF6nwNUdvs7A109S48-259">
          <mxGeometry width="100" height="100" relative="1" as="geometry">
            <mxPoint x="-550" y="330.0000000000004" as="sourcePoint" />
            <mxPoint x="-550" y="590.0000000000003" as="targetPoint" />
            <Array as="points">
              <mxPoint x="-560" y="460" />
            </Array>
          </mxGeometry>
        </mxCell>
        <mxCell id="jLGF6nwNUdvs7A109S48-276" style="edgeStyle=orthogonalEdgeStyle;rounded=0;orthogonalLoop=1;jettySize=auto;html=1;exitX=0;exitY=0.5;exitDx=0;exitDy=0;entryX=0;entryY=0.5;entryDx=0;entryDy=0;endArrow=none;endFill=0;strokeWidth=8;" edge="1" parent="1" source="jLGF6nwNUdvs7A109S48-275" target="jLGF6nwNUdvs7A109S48-251">
          <mxGeometry relative="1" as="geometry" />
        </mxCell>
        <mxCell id="jLGF6nwNUdvs7A109S48-275" value="Automatically create user accounts from database" style="whiteSpace=wrap;rounded=1;strokeColor=default;shadow=1;fontStyle=0;labelBackgroundColor=none;fillColor=default;perimeterSpacing=0;" vertex="1" parent="1">
          <mxGeometry x="-540.0000000000001" y="720.0000000000001" width="120" height="60" as="geometry" />
        </mxCell>
        <mxCell id="jLGF6nwNUdvs7A109S48-309" style="edgeStyle=orthogonalEdgeStyle;rounded=0;orthogonalLoop=1;jettySize=auto;html=1;exitX=0.5;exitY=0;exitDx=0;exitDy=0;entryX=0.5;entryY=1;entryDx=0;entryDy=0;endArrow=none;endFill=0;strokeWidth=8;" edge="1" parent="1" source="jLGF6nwNUdvs7A109S48-298" target="8">
          <mxGeometry relative="1" as="geometry" />
        </mxCell>
        <mxCell id="jLGF6nwNUdvs7A109S48-298" value="Library" style="whiteSpace=wrap;rounded=1;strokeColor=#6c8ebf;shadow=1;labelBackgroundColor=none;fillStyle=auto;fillColor=#dae8fc;perimeterSpacing=0;" vertex="1" parent="1">
          <mxGeometry x="1949.9999999999998" y="299.9999999999999" width="120" height="60" as="geometry" />
        </mxCell>
        <mxCell id="jLGF6nwNUdvs7A109S48-299" value="WORK&#xa;PACKAGE 1" style="whiteSpace=wrap;rounded=1;strokeColor=default;shadow=1;fontStyle=0;labelBackgroundColor=none;fillColor=default;perimeterSpacing=0;" vertex="1" parent="1">
          <mxGeometry x="1949.9999999999993" y="399.9999999999999" width="120" height="60" as="geometry" />
        </mxCell>
        <mxCell id="jLGF6nwNUdvs7A109S48-300" value="WORK&#xa;PACKAGE 2" style="whiteSpace=wrap;rounded=1;strokeColor=default;shadow=1;fontStyle=0;labelBackgroundColor=none;fillColor=default;perimeterSpacing=0;" vertex="1" parent="1">
          <mxGeometry x="1949.9999999999995" y="479.9999999999999" width="120" height="60" as="geometry" />
        </mxCell>
        <mxCell id="jLGF6nwNUdvs7A109S48-301" value="WORK&#xa;PACKAGE 3" style="whiteSpace=wrap;rounded=1;strokeColor=default;shadow=1;fontStyle=0;labelBackgroundColor=none;fillColor=default;perimeterSpacing=0;" vertex="1" parent="1">
          <mxGeometry x="1949.9999999999995" y="559.9999999999999" width="120" height="60" as="geometry" />
        </mxCell>
        <mxCell id="jLGF6nwNUdvs7A109S48-302" value="WORK&#xa;PACKAGE 4" style="whiteSpace=wrap;rounded=1;strokeColor=default;shadow=1;fontStyle=0;labelBackgroundColor=none;fillColor=default;perimeterSpacing=0;" vertex="1" parent="1">
          <mxGeometry x="1949.9999999999995" y="639.9999999999999" width="120" height="60" as="geometry" />
        </mxCell>
        <mxCell id="jLGF6nwNUdvs7A109S48-303" value="WORK&#xa;PACKAGE 5" style="whiteSpace=wrap;rounded=1;strokeColor=default;shadow=1;fontStyle=0;labelBackgroundColor=none;fillColor=default;perimeterSpacing=0;" vertex="1" parent="1">
          <mxGeometry x="1949.9999999999998" y="719.9999999999999" width="120" height="60" as="geometry" />
        </mxCell>
        <mxCell id="jLGF6nwNUdvs7A109S48-304" value="" style="edgeStyle=elbowEdgeStyle;elbow=horizontal;rounded=0;fontColor=default;endArrow=none;endFill=0;strokeWidth=8;labelBackgroundColor=none;" edge="1" parent="1" source="jLGF6nwNUdvs7A109S48-298" target="jLGF6nwNUdvs7A109S48-299">
          <mxGeometry width="100" height="100" relative="1" as="geometry">
            <mxPoint x="1920" y="330.0000000000002" as="sourcePoint" />
            <mxPoint x="1929.9999999999995" y="429.9999999999998" as="targetPoint" />
            <Array as="points">
              <mxPoint x="1930" y="379.9999999999998" />
            </Array>
          </mxGeometry>
        </mxCell>
        <mxCell id="jLGF6nwNUdvs7A109S48-305" value="" style="edgeStyle=elbowEdgeStyle;elbow=horizontal;rounded=0;fontColor=default;endArrow=none;endFill=0;strokeWidth=8;labelBackgroundColor=none;" edge="1" parent="1" source="jLGF6nwNUdvs7A109S48-298" target="jLGF6nwNUdvs7A109S48-300">
          <mxGeometry width="100" height="100" relative="1" as="geometry">
            <mxPoint x="1930" y="329.9999999999998" as="sourcePoint" />
            <mxPoint x="1929.9999999999998" y="509.9999999999998" as="targetPoint" />
            <Array as="points">
              <mxPoint x="1930" y="419.9999999999998" />
            </Array>
          </mxGeometry>
        </mxCell>
        <mxCell id="jLGF6nwNUdvs7A109S48-306" value="" style="edgeStyle=elbowEdgeStyle;elbow=horizontal;rounded=0;fontColor=default;endArrow=none;endFill=0;strokeWidth=8;labelBackgroundColor=none;" edge="1" parent="1" source="jLGF6nwNUdvs7A109S48-298" target="jLGF6nwNUdvs7A109S48-303">
          <mxGeometry width="100" height="100" relative="1" as="geometry">
            <mxPoint x="1930" y="329.9999999999998" as="sourcePoint" />
            <mxPoint x="1930" y="749.9999999999998" as="targetPoint" />
            <Array as="points">
              <mxPoint x="1930" y="539.9999999999998" />
            </Array>
          </mxGeometry>
        </mxCell>
        <mxCell id="jLGF6nwNUdvs7A109S48-307" value="" style="edgeStyle=elbowEdgeStyle;elbow=horizontal;rounded=0;fontColor=default;endArrow=none;endFill=0;strokeWidth=8;labelBackgroundColor=none;" edge="1" parent="1" source="jLGF6nwNUdvs7A109S48-298" target="jLGF6nwNUdvs7A109S48-302">
          <mxGeometry width="100" height="100" relative="1" as="geometry">
            <mxPoint x="1930" y="329.9999999999998" as="sourcePoint" />
            <mxPoint x="1930" y="669.9999999999998" as="targetPoint" />
            <Array as="points">
              <mxPoint x="1930" y="499.9999999999998" />
            </Array>
          </mxGeometry>
        </mxCell>
        <mxCell id="jLGF6nwNUdvs7A109S48-308" value="" style="edgeStyle=elbowEdgeStyle;elbow=horizontal;rounded=0;fontColor=default;endArrow=none;endFill=0;strokeWidth=8;labelBackgroundColor=none;" edge="1" parent="1" source="jLGF6nwNUdvs7A109S48-298" target="jLGF6nwNUdvs7A109S48-301">
          <mxGeometry width="100" height="100" relative="1" as="geometry">
            <mxPoint x="1930" y="329.9999999999998" as="sourcePoint" />
            <mxPoint x="1929.9999999999998" y="589.9999999999998" as="targetPoint" />
            <Array as="points">
              <mxPoint x="1930" y="469.9999999999998" />
            </Array>
          </mxGeometry>
        </mxCell>
        <mxCell id="jLGF6nwNUdvs7A109S48-332" style="edgeStyle=orthogonalEdgeStyle;rounded=0;orthogonalLoop=1;jettySize=auto;html=1;exitX=0.5;exitY=0;exitDx=0;exitDy=0;entryX=0.5;entryY=1;entryDx=0;entryDy=0;endArrow=none;endFill=0;strokeWidth=8;" edge="1" parent="1" source="jLGF6nwNUdvs7A109S48-321" target="jLGF6nwNUdvs7A109S48-249">
          <mxGeometry relative="1" as="geometry" />
        </mxCell>
        <mxCell id="jLGF6nwNUdvs7A109S48-321" value="Admin interface  (these append the libraran&#39;s front end)" style="whiteSpace=wrap;rounded=1;strokeColor=#6c8ebf;shadow=1;labelBackgroundColor=none;fillStyle=auto;fillColor=#dae8fc;perimeterSpacing=0;" vertex="1" parent="1">
          <mxGeometry x="-930" y="300.0000000000001" width="120" height="60" as="geometry" />
        </mxCell>
        <mxCell id="jLGF6nwNUdvs7A109S48-322" value="Dashboard" style="whiteSpace=wrap;rounded=1;shadow=1;fontStyle=0;labelBackgroundColor=none;perimeterSpacing=0;" vertex="1" parent="1">
          <mxGeometry x="-930.0000000000005" y="400.0000000000001" width="120" height="60" as="geometry" />
        </mxCell>
        <mxCell id="jLGF6nwNUdvs7A109S48-323" value="Manage Users" style="whiteSpace=wrap;rounded=1;shadow=1;fontStyle=0;labelBackgroundColor=none;perimeterSpacing=0;" vertex="1" parent="1">
          <mxGeometry x="-930.0000000000002" y="480.0000000000001" width="120" height="60" as="geometry" />
        </mxCell>
        <mxCell id="jLGF6nwNUdvs7A109S48-324" value="Manage Library" style="whiteSpace=wrap;rounded=1;shadow=1;fontStyle=0;labelBackgroundColor=none;perimeterSpacing=0;" vertex="1" parent="1">
          <mxGeometry x="-930.0000000000002" y="560.0000000000001" width="120" height="60" as="geometry" />
        </mxCell>
        <mxCell id="jLGF6nwNUdvs7A109S48-325" value="Analytics" style="whiteSpace=wrap;rounded=1;strokeColor=default;shadow=1;fontStyle=0;labelBackgroundColor=none;fillColor=default;perimeterSpacing=0;" vertex="1" parent="1">
          <mxGeometry x="-930.0000000000001" y="640.0000000000001" width="120" height="60" as="geometry" />
        </mxCell>
        <mxCell id="jLGF6nwNUdvs7A109S48-326" value="" style="edgeStyle=elbowEdgeStyle;elbow=horizontal;rounded=0;fontColor=default;endArrow=none;endFill=0;strokeWidth=8;labelBackgroundColor=none;" edge="1" parent="1" target="jLGF6nwNUdvs7A109S48-322">
          <mxGeometry width="100" height="100" relative="1" as="geometry">
            <mxPoint x="-940" y="330.0000000000004" as="sourcePoint" />
            <mxPoint x="-940" y="430.0000000000004" as="targetPoint" />
            <Array as="points">
              <mxPoint x="-950" y="380" />
            </Array>
          </mxGeometry>
        </mxCell>
        <mxCell id="jLGF6nwNUdvs7A109S48-327" value="" style="edgeStyle=elbowEdgeStyle;elbow=horizontal;rounded=0;fontColor=default;endArrow=none;endFill=0;strokeWidth=8;labelBackgroundColor=none;" edge="1" parent="1" source="jLGF6nwNUdvs7A109S48-321" target="jLGF6nwNUdvs7A109S48-323">
          <mxGeometry width="100" height="100" relative="1" as="geometry">
            <mxPoint x="-940" y="330.0000000000004" as="sourcePoint" />
            <mxPoint x="-940" y="510.00000000000045" as="targetPoint" />
            <Array as="points">
              <mxPoint x="-950" y="420" />
            </Array>
          </mxGeometry>
        </mxCell>
        <mxCell id="jLGF6nwNUdvs7A109S48-328" value="" style="edgeStyle=elbowEdgeStyle;elbow=horizontal;rounded=0;fontColor=default;endArrow=none;endFill=0;strokeWidth=8;labelBackgroundColor=none;" edge="1" parent="1" source="jLGF6nwNUdvs7A109S48-321" target="jLGF6nwNUdvs7A109S48-325">
          <mxGeometry width="100" height="100" relative="1" as="geometry">
            <mxPoint x="-940" y="330.0000000000004" as="sourcePoint" />
            <mxPoint x="-939.9999999999998" y="670.0000000000003" as="targetPoint" />
            <Array as="points">
              <mxPoint x="-950" y="500" />
            </Array>
          </mxGeometry>
        </mxCell>
        <mxCell id="jLGF6nwNUdvs7A109S48-329" value="" style="edgeStyle=elbowEdgeStyle;elbow=horizontal;rounded=0;fontColor=default;endArrow=none;endFill=0;strokeWidth=8;labelBackgroundColor=none;" edge="1" parent="1" source="jLGF6nwNUdvs7A109S48-321" target="jLGF6nwNUdvs7A109S48-324">
          <mxGeometry width="100" height="100" relative="1" as="geometry">
            <mxPoint x="-940" y="330.0000000000004" as="sourcePoint" />
            <mxPoint x="-940" y="590.0000000000003" as="targetPoint" />
            <Array as="points">
              <mxPoint x="-950" y="460" />
            </Array>
          </mxGeometry>
        </mxCell>
      </root>
    </mxGraphModel>
  </diagram>
</mxfile>
